STARTFONT 2.1
FONT --Swiss-Regular-R-Medium--22-180-96-96-P-137-IBM-UGL
SIZE 18 96 96
FONTBOUNDINGBOX 25 29 0 -6
METRICSSET 2
STARTPROPERTIES 28
FONT_ASCENT 17
FONT_DESCENT 5
PIXEL_SIZE 22
RESOLUTION_X 96
RESOLUTION_Y 96
POINT_SIZE 180
FACE_NAME "Helv"
FOUNDRY ""
FAMILY_NAME "Swiss"
WEIGHT_NAME "Regular"
RELATIVE_WEIGHT 50
SLANT "R"
SPACING "P"
SETWIDTH_NAME "Medium"
RELATIVE_SETWIDTH 50
ADD_STYLE_NAME ""
AVERAGE_WIDTH 137
UNDERLINE_POSITION 3
UNDERLINE_THICKNESS 2
SUPERSCRIPT_SIZE 17
SUBSCRIPT_SIZE 17
SUPERSCRIPT_X 0
SUPERSCRIPT_Y 10
SUBSCRIPT_X 0
SUBSCRIPT_Y 5
DEFAULT_CHAR 32
CHARSET_REGISTRY "IBM"
CHARSET_ENCODING "UGL"
ENDPROPERTIES
CHARS 330
STARTCHAR smileface
ENCODING 1
SWIDTH 792 0
DWIDTH 19 0
BBX 17 16 1 0
VVECTOR 10 23
SWIDTH1 0 -1208
DWIDTH1 0 -29
BITMAP 
07F000
1C1C00
300600
600300
463100
C63180
863080
800080
900480
980C80
CE3980
47F100
61C300
300600
1C1C00
07F000
ENDCHAR
STARTCHAR invsmileface
ENCODING 2
SWIDTH 792 0
DWIDTH 19 0
BBX 17 16 1 0
VVECTOR 10 23
SWIDTH1 0 -1208
DWIDTH1 0 -29
BITMAP 
07F000
1FFC00
3FFE00
7FFF00
79CF00
F9CF80
F9CF80
FFFF80
EFFB80
E7F380
F3E780
780F00
7C1F00
3FFE00
1FFC00
07F000
ENDCHAR
STARTCHAR heart
ENCODING 3
SWIDTH 792 0
DWIDTH 19 0
BBX 15 16 2 0
VVECTOR 10 23
SWIDTH1 0 -1208
DWIDTH1 0 -29
BITMAP 
3838
7C7C
FEFE
FFFE
FFFE
FFFE
7FFC
7FFC
3FF8
1FF0
0FE0
0FE0
07C0
0380
0380
0100
ENDCHAR
STARTCHAR diamond
ENCODING 4
SWIDTH 792 0
DWIDTH 19 0
BBX 11 16 4 0
VVECTOR 10 23
SWIDTH1 0 -1208
DWIDTH1 0 -29
BITMAP 
0400
0E00
1F00
1F00
3F80
7FC0
7FC0
FFE0
FFE0
7FC0
7FC0
3F80
1F00
1F00
0E00
0400
ENDCHAR
STARTCHAR club
ENCODING 5
SWIDTH 792 0
DWIDTH 19 0
BBX 17 16 1 0
VVECTOR 10 23
SWIDTH1 0 -1208
DWIDTH1 0 -29
BITMAP 
03E000
07F000
07F000
07F000
07F000
3BEE00
7DDF00
FFFF80
FFFF80
FFFF80
FFFF80
7EBF00
3C9E00
01C000
07F000
1FFC00
ENDCHAR
STARTCHAR spade
ENCODING 6
SWIDTH 792 0
DWIDTH 19 0
BBX 15 16 2 0
VVECTOR 10 23
SWIDTH1 0 -1208
DWIDTH1 0 -29
BITMAP 
0100
0380
0380
07C0
0FE0
3FF8
7FFC
FFFE
FFFE
FFFE
FD7E
793C
0100
0380
0FE0
3FF8
ENDCHAR
STARTCHAR bullet
ENCODING 7
SWIDTH 667 0
DWIDTH 16 0
BBX 8 8 4 4
VVECTOR 8 23
SWIDTH1 0 -1208
DWIDTH1 0 -29
BITMAP 
18
7E
7E
FF
FF
7E
7E
18
ENDCHAR
STARTCHAR invbullet
ENCODING 8
SWIDTH 667 0
DWIDTH 16 0
BBX 16 16 0 0
VVECTOR 8 23
SWIDTH1 0 -1208
DWIDTH1 0 -29
BITMAP 
FFFF
FFFF
FFFF
FFFF
FE7F
F81F
F81F
F00F
F00F
F81F
F81F
FE7F
FFFF
FFFF
FFFF
FFFF
ENDCHAR
STARTCHAR circle
ENCODING 9
SWIDTH 667 0
DWIDTH 16 0
BBX 12 12 2 2
VVECTOR 8 23
SWIDTH1 0 -1208
DWIDTH1 0 -29
BITMAP 
0F00
3FC0
79E0
6060
E070
C030
C030
E070
6060
79E0
3FC0
0F00
ENDCHAR
STARTCHAR invcircle
ENCODING 10
SWIDTH 667 0
DWIDTH 16 0
BBX 16 16 0 0
VVECTOR 8 23
SWIDTH1 0 -1208
DWIDTH1 0 -29
BITMAP 
FFFF
FFFF
FC3F
F00F
E187
E7E7
C7E3
CFF3
CFF3
C7E3
E7E7
E187
F00F
FC3F
FFFF
FFFF
ENDCHAR
STARTCHAR male
ENCODING 11
SWIDTH 792 0
DWIDTH 19 0
BBX 13 12 4 3
VVECTOR 12 23
SWIDTH1 0 -1208
DWIDTH1 0 -29
BITMAP 
01F8
00F8
0078
1EF8
7FD8
6188
C0C0
C0C0
C0C0
6180
7F80
1E00
ENDCHAR
STARTCHAR female
ENCODING 12
SWIDTH 750 0
DWIDTH 18 0
BBX 10 16 4 0
VVECTOR 9 23
SWIDTH1 0 -1208
DWIDTH1 0 -29
BITMAP 
1E00
7F80
6180
C0C0
C0C0
C0C0
6180
7F80
1E00
0C00
0C00
7F80
7F80
0C00
0C00
0C00
ENDCHAR
STARTCHAR musicalnote
ENCODING 13
SWIDTH 792 0
DWIDTH 19 0
BBX 11 16 3 0
VVECTOR 8 23
SWIDTH1 0 -1208
DWIDTH1 0 -29
BITMAP 
0600
0600
0700
0780
07C0
06C0
0660
0660
0660
0660
0660
3E60
7E40
FC40
FC00
7000
ENDCHAR
STARTCHAR musicalnotedbl
ENCODING 14
SWIDTH 792 0
DWIDTH 19 0
BBX 16 19 1 -2
VVECTOR 9 23
SWIDTH1 0 -1208
DWIDTH1 0 -29
BITMAP 
0003
000F
007F
03F3
0783
060F
067F
07F3
0783
0603
0603
0603
061F
063F
3E7E
7E7E
FC38
FC00
7000
ENDCHAR
STARTCHAR sun
ENCODING 15
SWIDTH 750 0
DWIDTH 18 0
BBX 16 16 1 0
VVECTOR 9 23
SWIDTH1 0 -1208
DWIDTH1 0 -29
BITMAP 
0180
2184
718E
3BDC
1FF8
0C30
1818
F81F
F81F
1818
0C30
1FF8
3BDC
718E
2184
0180
ENDCHAR
STARTCHAR triagrt
ENCODING 16
SWIDTH 1000 0
DWIDTH 24 0
BBX 19 14 3 2
VVECTOR 13 23
SWIDTH1 0 -1208
DWIDTH1 0 -29
BITMAP 
800000
F00000
FE0000
FFC000
FFF800
FFFF00
FFFFE0
FFFFE0
FFFF00
FFF800
FFC000
FE0000
F00000
800000
ENDCHAR
STARTCHAR triaglf
ENCODING 17
SWIDTH 1000 0
DWIDTH 24 0
BBX 19 14 2 2
VVECTOR 11 23
SWIDTH1 0 -1208
DWIDTH1 0 -29
BITMAP 
000020
0001E0
000FE0
007FE0
03FFE0
1FFFE0
FFFFE0
FFFFE0
1FFFE0
03FFE0
007FE0
000FE0
0001E0
000020
ENDCHAR
STARTCHAR arrowupdn
ENCODING 18
SWIDTH 750 0
DWIDTH 18 0
BBX 10 16 4 0
VVECTOR 9 23
SWIDTH1 0 -1208
DWIDTH1 0 -29
BITMAP 
0C00
1E00
3F00
FFC0
CCC0
0C00
0C00
0C00
0C00
0C00
0C00
CCC0
FFC0
3F00
1E00
0C00
ENDCHAR
STARTCHAR exclamdbl
ENCODING 19
SWIDTH 542 0
DWIDTH 13 0
BBX 9 16 2 0
VVECTOR 7 23
SWIDTH1 0 -1208
DWIDTH1 0 -29
BITMAP 
E380
E380
E380
E380
E380
E380
E380
4100
4100
4100
4100
0000
0000
E380
E380
E380
ENDCHAR
STARTCHAR char14
ENCODING 20
SWIDTH 542 0
DWIDTH 13 0
BBX 12 19 1 -3
VVECTOR 8 23
SWIDTH1 0 -1208
DWIDTH1 0 -29
BITMAP 
1FF0
7FF0
7CC0
FCC0
FCC0
FCC0
7CC0
7CC0
1CC0
0CC0
0CC0
0CC0
0CC0
0CC0
0CC0
0CC0
0CC0
0CC0
0CC0
ENDCHAR
STARTCHAR char15
ENCODING 21
SWIDTH 542 0
DWIDTH 13 0
BBX 11 22 1 -4
VVECTOR 7 23
SWIDTH1 0 -1208
DWIDTH1 0 -29
BITMAP 
1F00
3F80
71C0
60C0
70C0
3800
7C00
EE00
C700
C380
E1C0
70E0
3860
1C60
0EE0
07C0
0380
61C0
60C0
71C0
3F80
1F00
ENDCHAR
STARTCHAR filledrect
ENCODING 22
SWIDTH 667 0
DWIDTH 16 0
BBX 14 8 1 4
VVECTOR 8 23
SWIDTH1 0 -1208
DWIDTH1 0 -29
BITMAP 
FFFC
FFFC
FFFC
FFFC
FFFC
FFFC
FFFC
FFFC
ENDCHAR
STARTCHAR arrowupdnbse
ENCODING 23
SWIDTH 750 0
DWIDTH 18 0
BBX 10 20 4 -4
VVECTOR 9 23
SWIDTH1 0 -1208
DWIDTH1 0 -29
BITMAP 
0C00
1E00
3F00
FFC0
CCC0
0C00
0C00
0C00
0C00
0C00
0C00
CCC0
FFC0
3F00
1E00
0C00
0000
0000
7F80
7F80
ENDCHAR
STARTCHAR arrowup
ENCODING 24
SWIDTH 750 0
DWIDTH 18 0
BBX 10 16 4 0
VVECTOR 9 23
SWIDTH1 0 -1208
DWIDTH1 0 -29
BITMAP 
0C00
1E00
3F00
FFC0
CCC0
0C00
0C00
0C00
0C00
0C00
0C00
0C00
0C00
0C00
0C00
0C00
ENDCHAR
STARTCHAR arrowdown
ENCODING 25
SWIDTH 750 0
DWIDTH 18 0
BBX 10 16 4 0
VVECTOR 9 23
SWIDTH1 0 -1208
DWIDTH1 0 -29
BITMAP 
0C00
0C00
0C00
0C00
0C00
0C00
0C00
0C00
0C00
0C00
0C00
CCC0
FFC0
3F00
1E00
0C00
ENDCHAR
STARTCHAR arrowright
ENCODING 26
SWIDTH 750 0
DWIDTH 18 0
BBX 16 10 1 2
VVECTOR 9 23
SWIDTH1 0 -1208
DWIDTH1 0 -29
BITMAP 
0030
0030
0018
001C
FFFF
FFFF
001C
0018
0030
0030
ENDCHAR
STARTCHAR arrowleft
ENCODING 27
SWIDTH 750 0
DWIDTH 18 0
BBX 16 10 1 2
VVECTOR 9 23
SWIDTH1 0 -1208
DWIDTH1 0 -29
BITMAP 
0C00
0C00
1800
3800
FFFF
FFFF
3800
1800
0C00
0C00
ENDCHAR
STARTCHAR orthogonal
ENCODING 28
SWIDTH 583 0
DWIDTH 14 0
BBX 11 7 2 0
VVECTOR 8 23
SWIDTH1 0 -1208
DWIDTH1 0 -29
BITMAP 
C000
C000
C000
C000
C000
FFE0
FFE0
ENDCHAR
STARTCHAR arrowboth
ENCODING 29
SWIDTH 750 0
DWIDTH 18 0
BBX 16 10 1 2
VVECTOR 9 23
SWIDTH1 0 -1208
DWIDTH1 0 -29
BITMAP 
0C30
0C30
1818
381C
FFFF
FFFF
381C
1818
0C30
0C30
ENDCHAR
STARTCHAR triagup
ENCODING 30
SWIDTH 750 0
DWIDTH 18 0
BBX 12 12 3 3
VVECTOR 9 23
SWIDTH1 0 -1208
DWIDTH1 0 -29
BITMAP 
0600
0600
0F00
0F00
1F80
1F80
3FC0
3FC0
7FE0
7FE0
FFF0
FFF0
ENDCHAR
STARTCHAR triagdn
ENCODING 31
SWIDTH 750 0
DWIDTH 18 0
BBX 12 12 3 3
VVECTOR 9 23
SWIDTH1 0 -1208
DWIDTH1 0 -29
BITMAP 
FFF0
FFF0
7FE0
7FE0
3FC0
3FC0
1F80
1F80
0F00
0F00
0600
0600
ENDCHAR
STARTCHAR space
ENCODING 32
SWIDTH 250 0
DWIDTH 6 0
BBX 0 0 6 23
VVECTOR 9 23
SWIDTH1 0 -1208
DWIDTH1 0 -29
BITMAP 
ENDCHAR
STARTCHAR exclam
ENCODING 33
SWIDTH 250 0
DWIDTH 6 0
BBX 2 17 2 0
VVECTOR 3 23
SWIDTH1 0 -1208
DWIDTH1 0 -29
BITMAP 
C0
C0
C0
C0
C0
C0
C0
C0
C0
C0
C0
C0
C0
00
00
C0
C0
ENDCHAR
STARTCHAR quotedbl
ENCODING 34
SWIDTH 333 0
DWIDTH 8 0
BBX 6 6 1 11
VVECTOR 4 23
SWIDTH1 0 -1208
DWIDTH1 0 -29
BITMAP 
CC
CC
CC
CC
CC
CC
ENDCHAR
STARTCHAR numbersign
ENCODING 35
SWIDTH 542 0
DWIDTH 13 0
BBX 11 17 1 0
VVECTOR 7 23
SWIDTH1 0 -1208
DWIDTH1 0 -29
BITMAP 
0CC0
0CC0
0CC0
1980
1980
7FE0
7FE0
1980
3300
3300
FFC0
FFC0
3300
3300
6600
6600
6600
ENDCHAR
STARTCHAR dollar
ENCODING 36
SWIDTH 542 0
DWIDTH 13 0
BBX 11 20 1 -2
VVECTOR 7 23
SWIDTH1 0 -1208
DWIDTH1 0 -29
BITMAP 
0400
1F00
7FC0
64E0
C460
C400
C400
6400
7F00
1FC0
04C0
0460
0460
0460
C460
E4C0
7FC0
1F00
0400
0400
ENDCHAR
STARTCHAR percent
ENCODING 37
SWIDTH 917 0
DWIDTH 22 0
BBX 20 17 1 0
VVECTOR 11 23
SWIDTH1 0 -1208
DWIDTH1 0 -29
BITMAP 
3C0300
7E0300
E70600
C30C00
C30C00
E71800
7E3000
3C3000
006000
00C3C0
00C7E0
018E70
030C30
030C30
060E70
0C07E0
0C03C0
ENDCHAR
STARTCHAR ampersand
ENCODING 38
SWIDTH 667 0
DWIDTH 16 0
BBX 14 17 1 0
VVECTOR 8 23
SWIDTH1 0 -1208
DWIDTH1 0 -29
BITMAP 
0E00
1F00
3180
3180
3180
1B00
1F00
0E00
3F00
7318
6398
C1D8
C0F0
C070
60F0
7FF8
1F1C
ENDCHAR
STARTCHAR quotesingle
ENCODING 39
SWIDTH 167 0
DWIDTH 4 0
BBX 2 6 1 11
VVECTOR 2 23
SWIDTH1 0 -1208
DWIDTH1 0 -29
BITMAP 
C0
C0
C0
C0
C0
C0
ENDCHAR
STARTCHAR parenleft
ENCODING 40
SWIDTH 333 0
DWIDTH 8 0
BBX 5 22 2 -5
VVECTOR 5 23
SWIDTH1 0 -1208
DWIDTH1 0 -29
BITMAP 
18
30
30
60
60
60
C0
C0
C0
C0
C0
C0
C0
C0
C0
C0
60
60
60
30
30
18
ENDCHAR
STARTCHAR parenright
ENCODING 41
SWIDTH 333 0
DWIDTH 8 0
BBX 5 22 1 -5
VVECTOR 3 23
SWIDTH1 0 -1208
DWIDTH1 0 -29
BITMAP 
C0
60
60
30
30
30
18
18
18
18
18
18
18
18
18
18
30
30
30
60
60
C0
ENDCHAR
STARTCHAR asterisk
ENCODING 42
SWIDTH 417 0
DWIDTH 10 0
BBX 7 7 2 10
VVECTOR 6 23
SWIDTH1 0 -1208
DWIDTH1 0 -29
BITMAP 
10
10
D6
7C
38
6C
44
ENDCHAR
STARTCHAR plus
ENCODING 43
SWIDTH 583 0
DWIDTH 14 0
BBX 10 10 2 4
VVECTOR 7 23
SWIDTH1 0 -1208
DWIDTH1 0 -29
BITMAP 
0C00
0C00
0C00
0C00
FFC0
FFC0
0C00
0C00
0C00
0C00
ENDCHAR
STARTCHAR comma
ENCODING 44
SWIDTH 250 0
DWIDTH 6 0
BBX 2 4 2 -2
VVECTOR 3 23
SWIDTH1 0 -1208
DWIDTH1 0 -29
BITMAP 
C0
C0
40
80
ENDCHAR
STARTCHAR hyphen
ENCODING 45
SWIDTH 333 0
DWIDTH 8 0
BBX 6 2 1 5
VVECTOR 4 23
SWIDTH1 0 -1208
DWIDTH1 0 -29
BITMAP 
FC
FC
ENDCHAR
STARTCHAR period
ENCODING 46
SWIDTH 250 0
DWIDTH 6 0
BBX 2 2 2 0
VVECTOR 3 23
SWIDTH1 0 -1208
DWIDTH1 0 -29
BITMAP 
C0
C0
ENDCHAR
STARTCHAR slash
ENCODING 47
SWIDTH 292 0
DWIDTH 7 0
BBX 7 17 0 0
VVECTOR 4 23
SWIDTH1 0 -1208
DWIDTH1 0 -29
BITMAP 
06
06
0C
0C
0C
18
18
18
30
30
30
60
60
60
C0
C0
C0
ENDCHAR
STARTCHAR zero
ENCODING 48
SWIDTH 542 0
DWIDTH 13 0
BBX 11 17 1 0
VVECTOR 7 23
SWIDTH1 0 -1208
DWIDTH1 0 -29
BITMAP 
0E00
3F80
71C0
60C0
C060
C060
C060
C060
C060
C060
C060
C060
C060
60C0
71C0
3F80
0E00
ENDCHAR
STARTCHAR one
ENCODING 49
SWIDTH 542 0
DWIDTH 13 0
BBX 6 17 2 0
VVECTOR 4 23
SWIDTH1 0 -1208
DWIDTH1 0 -29
BITMAP 
0C
1C
FC
FC
0C
0C
0C
0C
0C
0C
0C
0C
0C
0C
0C
0C
0C
ENDCHAR
STARTCHAR two
ENCODING 50
SWIDTH 542 0
DWIDTH 13 0
BBX 11 17 1 0
VVECTOR 7 23
SWIDTH1 0 -1208
DWIDTH1 0 -29
BITMAP 
1F00
7FC0
71C0
E0E0
C060
0060
00E0
01C0
07C0
0F00
1C00
3800
7000
6000
E000
FFE0
FFE0
ENDCHAR
STARTCHAR three
ENCODING 51
SWIDTH 542 0
DWIDTH 13 0
BBX 11 17 1 0
VVECTOR 7 23
SWIDTH1 0 -1208
DWIDTH1 0 -29
BITMAP 
1F00
7FC0
71C0
E0E0
C060
00C0
01C0
0F80
0F80
01C0
00E0
C060
C060
E0E0
71C0
7FC0
1F00
ENDCHAR
STARTCHAR four
ENCODING 52
SWIDTH 542 0
DWIDTH 13 0
BBX 11 17 1 0
VVECTOR 7 23
SWIDTH1 0 -1208
DWIDTH1 0 -29
BITMAP 
01C0
03C0
07C0
06C0
0EC0
1CC0
18C0
38C0
70C0
60C0
E0C0
FFE0
FFE0
00C0
00C0
00C0
00C0
ENDCHAR
STARTCHAR five
ENCODING 53
SWIDTH 542 0
DWIDTH 13 0
BBX 11 17 1 0
VVECTOR 7 23
SWIDTH1 0 -1208
DWIDTH1 0 -29
BITMAP 
3FE0
3FE0
3000
6000
6000
6000
FF00
FFC0
C1C0
00E0
0060
0060
0060
C0E0
E1C0
7FC0
1F00
ENDCHAR
STARTCHAR six
ENCODING 54
SWIDTH 542 0
DWIDTH 13 0
BBX 11 17 1 0
VVECTOR 7 23
SWIDTH1 0 -1208
DWIDTH1 0 -29
BITMAP 
0F00
3FC0
70C0
6060
C000
C000
CF00
FFC0
F1C0
E0E0
C060
C060
C060
E0E0
71C0
7FC0
1F00
ENDCHAR
STARTCHAR seven
ENCODING 55
SWIDTH 542 0
DWIDTH 13 0
BBX 11 17 1 0
VVECTOR 7 23
SWIDTH1 0 -1208
DWIDTH1 0 -29
BITMAP 
FFE0
FFE0
00C0
01C0
0180
0380
0300
0700
0600
0E00
0C00
0C00
1C00
1800
1800
1800
1800
ENDCHAR
STARTCHAR eight
ENCODING 56
SWIDTH 542 0
DWIDTH 13 0
BBX 11 17 1 0
VVECTOR 7 23
SWIDTH1 0 -1208
DWIDTH1 0 -29
BITMAP 
0E00
3F80
3180
60C0
60C0
60C0
3180
3F80
3F80
71C0
E0E0
C060
C060
E0E0
71C0
7FC0
1F00
ENDCHAR
STARTCHAR nine
ENCODING 57
SWIDTH 542 0
DWIDTH 13 0
BBX 11 17 1 0
VVECTOR 7 23
SWIDTH1 0 -1208
DWIDTH1 0 -29
BITMAP 
1F00
7FC0
71C0
E0E0
C060
C060
C060
E0E0
71E0
7FE0
1F60
0060
0060
C0C0
61C0
7F80
1E00
ENDCHAR
STARTCHAR colon
ENCODING 58
SWIDTH 250 0
DWIDTH 6 0
BBX 2 12 2 0
VVECTOR 3 23
SWIDTH1 0 -1208
DWIDTH1 0 -29
BITMAP 
C0
C0
00
00
00
00
00
00
00
00
C0
C0
ENDCHAR
STARTCHAR semicolon
ENCODING 59
SWIDTH 250 0
DWIDTH 6 0
BBX 2 14 2 -2
VVECTOR 3 23
SWIDTH1 0 -1208
DWIDTH1 0 -29
BITMAP 
C0
C0
00
00
00
00
00
00
00
00
C0
C0
40
80
ENDCHAR
STARTCHAR less
ENCODING 60
SWIDTH 583 0
DWIDTH 14 0
BBX 12 16 1 0
VVECTOR 7 23
SWIDTH1 0 -1208
DWIDTH1 0 -29
BITMAP 
0010
0070
00E0
0380
0700
1C00
3800
E000
E000
3800
1C00
0700
0380
00E0
0070
0010
ENDCHAR
STARTCHAR equal
ENCODING 61
SWIDTH 583 0
DWIDTH 14 0
BBX 12 8 1 5
VVECTOR 7 23
SWIDTH1 0 -1208
DWIDTH1 0 -29
BITMAP 
FFF0
FFF0
0000
0000
0000
0000
FFF0
FFF0
ENDCHAR
STARTCHAR greater
ENCODING 62
SWIDTH 583 0
DWIDTH 14 0
BBX 12 16 1 0
VVECTOR 7 23
SWIDTH1 0 -1208
DWIDTH1 0 -29
BITMAP 
8000
E000
7000
1C00
0E00
0380
01C0
0070
0070
01C0
0380
0E00
1C00
7000
E000
8000
ENDCHAR
STARTCHAR question
ENCODING 63
SWIDTH 500 0
DWIDTH 12 0
BBX 10 17 1 0
VVECTOR 6 23
SWIDTH1 0 -1208
DWIDTH1 0 -29
BITMAP 
1E00
7F80
6180
C0C0
C0C0
01C0
0380
0700
0600
0C00
0C00
0C00
0000
0000
0000
0C00
0C00
ENDCHAR
STARTCHAR at
ENCODING 64
SWIDTH 1000 0
DWIDTH 24 0
BBX 22 21 1 -4
VVECTOR 12 23
SWIDTH1 0 -1208
DWIDTH1 0 -29
BITMAP 
00FC00
03FF00
0E01C0
180060
300030
207C10
61FD98
438788
C3030C
C6030C
C6060C
C60608
C60C18
430C30
63FE70
20E3C0
300000
180000
0E0300
03FE00
00F800
ENDCHAR
STARTCHAR A
ENCODING 65
SWIDTH 625 0
DWIDTH 15 0
BBX 15 17 0 0
VVECTOR 8 23
SWIDTH1 0 -1208
DWIDTH1 0 -29
BITMAP 
0380
0380
07C0
06C0
06C0
0EE0
0C60
0C60
1C70
1830
3838
3FF8
3FF8
701C
600C
E00E
E00E
ENDCHAR
STARTCHAR B
ENCODING 66
SWIDTH 667 0
DWIDTH 16 0
BBX 13 17 2 0
VVECTOR 9 23
SWIDTH1 0 -1208
DWIDTH1 0 -29
BITMAP 
FF80
FFE0
C060
C030
C030
C030
C070
FFE0
FFF0
C030
C018
C018
C018
C018
C030
FFF0
FFC0
ENDCHAR
STARTCHAR C
ENCODING 67
SWIDTH 708 0
DWIDTH 17 0
BBX 16 17 1 0
VVECTOR 10 23
SWIDTH1 0 -1208
DWIDTH1 0 -29
BITMAP 
07F0
1FFC
3C1E
7006
6003
E003
C000
C000
C000
C000
C000
E003
6003
7006
3C1E
1FFC
07F0
ENDCHAR
STARTCHAR D
ENCODING 68
SWIDTH 708 0
DWIDTH 17 0
BBX 14 17 2 0
VVECTOR 10 23
SWIDTH1 0 -1208
DWIDTH1 0 -29
BITMAP 
FF80
FFE0
C0F0
C038
C018
C01C
C00C
C00C
C00C
C00C
C00C
C01C
C018
C038
C0F0
FFE0
FF80
ENDCHAR
STARTCHAR E
ENCODING 69
SWIDTH 667 0
DWIDTH 16 0
BBX 13 17 2 0
VVECTOR 9 23
SWIDTH1 0 -1208
DWIDTH1 0 -29
BITMAP 
FFF8
FFF8
C000
C000
C000
C000
C000
FFE0
FFE0
C000
C000
C000
C000
C000
C000
FFF8
FFF8
ENDCHAR
STARTCHAR F
ENCODING 70
SWIDTH 625 0
DWIDTH 15 0
BBX 13 17 2 0
VVECTOR 10 23
SWIDTH1 0 -1208
DWIDTH1 0 -29
BITMAP 
FFF8
FFF8
C000
C000
C000
C000
C000
FFE0
FFE0
C000
C000
C000
C000
C000
C000
C000
C000
ENDCHAR
STARTCHAR G
ENCODING 71
SWIDTH 750 0
DWIDTH 18 0
BBX 16 17 1 0
VVECTOR 9 23
SWIDTH1 0 -1208
DWIDTH1 0 -29
BITMAP 
07F0
1FFC
3C1E
7006
6003
E003
C000
C000
C000
C07F
C07F
E003
6003
7007
3C1F
1FFF
07F1
ENDCHAR
STARTCHAR H
ENCODING 72
SWIDTH 708 0
DWIDTH 17 0
BBX 13 17 2 0
VVECTOR 9 23
SWIDTH1 0 -1208
DWIDTH1 0 -29
BITMAP 
C018
C018
C018
C018
C018
C018
C018
FFF8
FFF8
C018
C018
C018
C018
C018
C018
C018
C018
ENDCHAR
STARTCHAR I
ENCODING 73
SWIDTH 250 0
DWIDTH 6 0
BBX 2 17 2 0
VVECTOR 3 23
SWIDTH1 0 -1208
DWIDTH1 0 -29
BITMAP 
C0
C0
C0
C0
C0
C0
C0
C0
C0
C0
C0
C0
C0
C0
C0
C0
C0
ENDCHAR
STARTCHAR J
ENCODING 74
SWIDTH 500 0
DWIDTH 12 0
BBX 10 17 0 0
VVECTOR 4 23
SWIDTH1 0 -1208
DWIDTH1 0 -29
BITMAP 
00C0
00C0
00C0
00C0
00C0
00C0
00C0
00C0
00C0
00C0
00C0
00C0
C0C0
C0C0
6180
7F80
1E00
ENDCHAR
STARTCHAR K
ENCODING 75
SWIDTH 667 0
DWIDTH 16 0
BBX 14 17 2 0
VVECTOR 10 23
SWIDTH1 0 -1208
DWIDTH1 0 -29
BITMAP 
C038
C070
C0E0
C1C0
C380
C700
CE00
DF00
FF00
F380
E1C0
C0C0
C0E0
C070
C030
C038
C01C
ENDCHAR
STARTCHAR L
ENCODING 76
SWIDTH 542 0
DWIDTH 13 0
BBX 11 17 2 0
VVECTOR 9 23
SWIDTH1 0 -1208
DWIDTH1 0 -29
BITMAP 
C000
C000
C000
C000
C000
C000
C000
C000
C000
C000
C000
C000
C000
C000
C000
FFE0
FFE0
ENDCHAR
STARTCHAR M
ENCODING 77
SWIDTH 833 0
DWIDTH 20 0
BBX 16 17 2 0
VVECTOR 10 23
SWIDTH1 0 -1208
DWIDTH1 0 -29
BITMAP 
C003
C003
E007
E007
F00F
F00F
F81F
D81B
DC3B
CC33
CE73
C663
C7E3
C3C3
C3C3
C183
C183
ENDCHAR
STARTCHAR N
ENCODING 78
SWIDTH 750 0
DWIDTH 18 0
BBX 14 17 2 0
VVECTOR 9 23
SWIDTH1 0 -1208
DWIDTH1 0 -29
BITMAP 
C00C
E00C
F00C
F80C
D80C
DC0C
CE0C
C70C
C30C
C38C
C1CC
C0EC
C06C
C07C
C03C
C01C
C00C
ENDCHAR
STARTCHAR O
ENCODING 79
SWIDTH 792 0
DWIDTH 19 0
BBX 17 17 1 0
VVECTOR 10 23
SWIDTH1 0 -1208
DWIDTH1 0 -29
BITMAP 
07F000
1FFC00
3C1E00
700700
600300
E00380
C00180
C00180
C00180
C00180
C00180
E00380
600300
700700
3C1E00
1FFC00
07F000
ENDCHAR
STARTCHAR P
ENCODING 80
SWIDTH 667 0
DWIDTH 16 0
BBX 14 17 2 0
VVECTOR 10 23
SWIDTH1 0 -1208
DWIDTH1 0 -29
BITMAP 
FFE0
FFF8
C018
C00C
C00C
C00C
C00C
C018
FFF8
FFE0
C000
C000
C000
C000
C000
C000
C000
ENDCHAR
STARTCHAR Q
ENCODING 81
SWIDTH 792 0
DWIDTH 19 0
BBX 17 19 1 -2
VVECTOR 10 23
SWIDTH1 0 -1208
DWIDTH1 0 -29
BITMAP 
07F000
1FFC00
3C1E00
700700
600300
E00380
C00180
C00180
C00180
C00180
C00180
E02380
607300
703F00
3C1E00
1FFE00
07F700
000380
000100
ENDCHAR
STARTCHAR R
ENCODING 82
SWIDTH 708 0
DWIDTH 17 0
BBX 15 17 2 0
VVECTOR 11 23
SWIDTH1 0 -1208
DWIDTH1 0 -29
BITMAP 
FFE0
FFF8
C018
C00C
C00C
C00C
C00C
C018
FFF8
FFF0
C038
C018
C00C
C00C
C00C
C00E
C006
ENDCHAR
STARTCHAR S
ENCODING 83
SWIDTH 667 0
DWIDTH 16 0
BBX 14 17 1 0
VVECTOR 8 23
SWIDTH1 0 -1208
DWIDTH1 0 -29
BITMAP 
0FC0
3FF0
3038
6018
6000
6000
3000
3FE0
0FF8
0018
000C
000C
C00C
E00C
7818
3FF8
0FE0
ENDCHAR
STARTCHAR T
ENCODING 84
SWIDTH 667 0
DWIDTH 16 0
BBX 16 17 0 0
VVECTOR 8 23
SWIDTH1 0 -1208
DWIDTH1 0 -29
BITMAP 
FFFF
FFFF
0180
0180
0180
0180
0180
0180
0180
0180
0180
0180
0180
0180
0180
0180
0180
ENDCHAR
STARTCHAR U
ENCODING 85
SWIDTH 708 0
DWIDTH 17 0
BBX 13 17 2 0
VVECTOR 9 23
SWIDTH1 0 -1208
DWIDTH1 0 -29
BITMAP 
C018
C018
C018
C018
C018
C018
C018
C018
C018
C018
C018
C018
C018
6030
7070
3FE0
0F80
ENDCHAR
STARTCHAR V
ENCODING 86
SWIDTH 625 0
DWIDTH 15 0
BBX 15 17 0 0
VVECTOR 8 23
SWIDTH1 0 -1208
DWIDTH1 0 -29
BITMAP 
E00E
E00E
600C
701C
3018
3018
3838
1830
1C70
0C60
0C60
0EE0
06C0
06C0
07C0
0380
0380
ENDCHAR
STARTCHAR W
ENCODING 87
SWIDTH 917 0
DWIDTH 22 0
BBX 22 17 0 0
VVECTOR 11 23
SWIDTH1 0 -1208
DWIDTH1 0 -29
BITMAP 
C0300C
C0300C
E0301C
607818
607818
70FC38
30CC30
30CC30
39CE70
198660
198660
1F87E0
0F03C0
0F03C0
060180
060180
060180
ENDCHAR
STARTCHAR X
ENCODING 88
SWIDTH 708 0
DWIDTH 17 0
BBX 17 17 0 0
VVECTOR 9 23
SWIDTH1 0 -1208
DWIDTH1 0 -29
BITMAP 
C00180
E00380
700700
380E00
1C1C00
0E3800
077000
03E000
01C000
03E000
077000
0E3800
1C1C00
380E00
700700
E00380
C00180
ENDCHAR
STARTCHAR Y
ENCODING 89
SWIDTH 667 0
DWIDTH 16 0
BBX 16 17 0 0
VVECTOR 8 23
SWIDTH1 0 -1208
DWIDTH1 0 -29
BITMAP 
C003
E007
700E
381C
1C38
0E70
07E0
03C0
0180
0180
0180
0180
0180
0180
0180
0180
0180
ENDCHAR
STARTCHAR Z
ENCODING 90
SWIDTH 583 0
DWIDTH 14 0
BBX 14 17 0 0
VVECTOR 7 23
SWIDTH1 0 -1208
DWIDTH1 0 -29
BITMAP 
7FF8
7FF8
0070
0060
00E0
01C0
0180
0380
0700
0E00
0C00
1C00
3800
3000
7000
FFFC
FFFC
ENDCHAR
STARTCHAR bracketleft
ENCODING 91
SWIDTH 292 0
DWIDTH 7 0
BBX 4 22 2 -5
VVECTOR 5 23
SWIDTH1 0 -1208
DWIDTH1 0 -29
BITMAP 
F0
F0
C0
C0
C0
C0
C0
C0
C0
C0
C0
C0
C0
C0
C0
C0
C0
C0
C0
C0
F0
F0
ENDCHAR
STARTCHAR backslash
ENCODING 92
SWIDTH 292 0
DWIDTH 7 0
BBX 7 17 0 0
VVECTOR 4 23
SWIDTH1 0 -1208
DWIDTH1 0 -29
BITMAP 
C0
C0
60
60
60
30
30
30
18
18
18
0C
0C
0C
06
06
06
ENDCHAR
STARTCHAR bracketright
ENCODING 93
SWIDTH 292 0
DWIDTH 7 0
BBX 4 22 1 -5
VVECTOR 3 23
SWIDTH1 0 -1208
DWIDTH1 0 -29
BITMAP 
F0
F0
30
30
30
30
30
30
30
30
30
30
30
30
30
30
30
30
30
30
F0
F0
ENDCHAR
STARTCHAR asciicircum
ENCODING 94
SWIDTH 333 0
DWIDTH 8 0
BBX 8 3 0 17
VVECTOR 4 23
SWIDTH1 0 -1208
DWIDTH1 0 -29
BITMAP 
3C
7E
C3
ENDCHAR
STARTCHAR underscore
ENCODING 95
SWIDTH 542 0
DWIDTH 13 0
BBX 13 2 0 -3
VVECTOR 7 23
SWIDTH1 0 -1208
DWIDTH1 0 -29
BITMAP 
FFF8
FFF8
ENDCHAR
STARTCHAR grave
ENCODING 96
SWIDTH 333 0
DWIDTH 8 0
BBX 6 4 1 13
VVECTOR 4 23
SWIDTH1 0 -1208
DWIDTH1 0 -29
BITMAP 
E0
70
18
04
ENDCHAR
STARTCHAR a
ENCODING 97
SWIDTH 542 0
DWIDTH 13 0
BBX 12 12 1 0
VVECTOR 8 23
SWIDTH1 0 -1208
DWIDTH1 0 -29
BITMAP 
1E00
7F80
6180
00C0
01C0
1FC0
7EC0
E0C0
C0C0
E1C0
7FF0
3E70
ENDCHAR
STARTCHAR b
ENCODING 98
SWIDTH 583 0
DWIDTH 14 0
BBX 11 17 2 0
VVECTOR 8 23
SWIDTH1 0 -1208
DWIDTH1 0 -29
BITMAP 
C000
C000
C000
C000
C000
DF00
FFC0
E1C0
C0E0
C060
C060
C060
C060
C0E0
E1C0
FFC0
DF00
ENDCHAR
STARTCHAR c
ENCODING 99
SWIDTH 500 0
DWIDTH 12 0
BBX 11 12 1 0
VVECTOR 7 23
SWIDTH1 0 -1208
DWIDTH1 0 -29
BITMAP 
0F00
3FC0
70E0
6060
C000
C000
C000
C000
6060
70E0
3FC0
0F00
ENDCHAR
STARTCHAR d
ENCODING 100
SWIDTH 583 0
DWIDTH 14 0
BBX 11 17 1 0
VVECTOR 6 23
SWIDTH1 0 -1208
DWIDTH1 0 -29
BITMAP 
0060
0060
0060
0060
0060
1F60
7FE0
70E0
E060
C060
C060
C060
C060
E060
70E0
7FE0
1F60
ENDCHAR
STARTCHAR e
ENCODING 101
SWIDTH 583 0
DWIDTH 14 0
BBX 12 12 1 0
VVECTOR 7 23
SWIDTH1 0 -1208
DWIDTH1 0 -29
BITMAP 
0F00
3FC0
70E0
6060
C030
FFF0
FFF0
C000
6000
7070
3FE0
0F80
ENDCHAR
STARTCHAR f
ENCODING 102
SWIDTH 250 0
DWIDTH 6 0
BBX 6 17 0 0
VVECTOR 3 23
SWIDTH1 0 -1208
DWIDTH1 0 -29
BITMAP 
1C
3C
30
30
30
FC
FC
30
30
30
30
30
30
30
30
30
30
ENDCHAR
STARTCHAR g
ENCODING 103
SWIDTH 583 0
DWIDTH 14 0
BBX 11 17 1 -5
VVECTOR 6 23
SWIDTH1 0 -1208
DWIDTH1 0 -29
BITMAP 
1F60
7FE0
70E0
E060
C060
C060
C060
C060
E060
70E0
7FE0
1F60
0060
0060
60C0
7FC0
1F00
ENDCHAR
STARTCHAR h
ENCODING 104
SWIDTH 542 0
DWIDTH 13 0
BBX 9 17 2 0
VVECTOR 7 23
SWIDTH1 0 -1208
DWIDTH1 0 -29
BITMAP 
C000
C000
C000
C000
C000
DC00
FF00
E300
C180
C180
C180
C180
C180
C180
C180
C180
C180
ENDCHAR
STARTCHAR i
ENCODING 105
SWIDTH 250 0
DWIDTH 6 0
BBX 2 17 2 0
VVECTOR 3 23
SWIDTH1 0 -1208
DWIDTH1 0 -29
BITMAP 
C0
C0
00
00
00
C0
C0
C0
C0
C0
C0
C0
C0
C0
C0
C0
C0
ENDCHAR
STARTCHAR j
ENCODING 106
SWIDTH 250 0
DWIDTH 6 0
BBX 4 22 0 -5
VVECTOR 1 23
SWIDTH1 0 -1208
DWIDTH1 0 -29
BITMAP 
30
30
00
00
00
30
30
30
30
30
30
30
30
30
30
30
30
30
30
30
F0
E0
ENDCHAR
STARTCHAR k
ENCODING 107
SWIDTH 500 0
DWIDTH 12 0
BBX 10 17 2 0
VVECTOR 8 23
SWIDTH1 0 -1208
DWIDTH1 0 -29
BITMAP 
C000
C000
C000
C000
C000
C380
C700
CE00
DC00
F800
FC00
EE00
C600
C700
C380
C180
C1C0
ENDCHAR
STARTCHAR l
ENCODING 108
SWIDTH 250 0
DWIDTH 6 0
BBX 2 17 2 0
VVECTOR 3 23
SWIDTH1 0 -1208
DWIDTH1 0 -29
BITMAP 
C0
C0
C0
C0
C0
C0
C0
C0
C0
C0
C0
C0
C0
C0
C0
C0
C0
ENDCHAR
STARTCHAR m
ENCODING 109
SWIDTH 833 0
DWIDTH 20 0
BBX 16 12 2 0
VVECTOR 10 23
SWIDTH1 0 -1208
DWIDTH1 0 -29
BITMAP 
DE3C
FF7E
E3C6
C183
C183
C183
C183
C183
C183
C183
C183
C183
ENDCHAR
STARTCHAR n
ENCODING 110
SWIDTH 542 0
DWIDTH 13 0
BBX 9 12 2 0
VVECTOR 7 23
SWIDTH1 0 -1208
DWIDTH1 0 -29
BITMAP 
DC00
FF00
E300
C180
C180
C180
C180
C180
C180
C180
C180
C180
ENDCHAR
STARTCHAR o
ENCODING 111
SWIDTH 583 0
DWIDTH 14 0
BBX 12 12 1 0
VVECTOR 7 23
SWIDTH1 0 -1208
DWIDTH1 0 -29
BITMAP 
1F80
7FE0
70E0
E070
C030
C030
C030
C030
E070
70E0
7FE0
1F80
ENDCHAR
STARTCHAR p
ENCODING 112
SWIDTH 583 0
DWIDTH 14 0
BBX 11 17 2 -5
VVECTOR 8 23
SWIDTH1 0 -1208
DWIDTH1 0 -29
BITMAP 
DF00
FFC0
E1C0
C0E0
C060
C060
C060
C060
C0E0
E1C0
FFC0
DF00
C000
C000
C000
C000
C000
ENDCHAR
STARTCHAR q
ENCODING 113
SWIDTH 583 0
DWIDTH 14 0
BBX 11 17 1 -5
VVECTOR 6 23
SWIDTH1 0 -1208
DWIDTH1 0 -29
BITMAP 
1F60
7FE0
70E0
E060
C060
C060
C060
C060
E060
70E0
7FE0
1F60
0060
0060
0060
0060
0060
ENDCHAR
STARTCHAR r
ENCODING 114
SWIDTH 333 0
DWIDTH 8 0
BBX 6 12 2 0
VVECTOR 6 23
SWIDTH1 0 -1208
DWIDTH1 0 -29
BITMAP 
CC
DC
F0
E0
C0
C0
C0
C0
C0
C0
C0
C0
ENDCHAR
STARTCHAR s
ENCODING 115
SWIDTH 500 0
DWIDTH 12 0
BBX 10 12 1 0
VVECTOR 6 23
SWIDTH1 0 -1208
DWIDTH1 0 -29
BITMAP 
3E00
7F80
E180
C000
F000
7F00
1F80
03C0
00C0
C1C0
FF80
3F00
ENDCHAR
STARTCHAR t
ENCODING 116
SWIDTH 250 0
DWIDTH 6 0
BBX 6 15 0 0
VVECTOR 3 23
SWIDTH1 0 -1208
DWIDTH1 0 -29
BITMAP 
30
30
30
FC
FC
30
30
30
30
30
30
30
30
3C
1C
ENDCHAR
STARTCHAR u
ENCODING 117
SWIDTH 542 0
DWIDTH 13 0
BBX 9 12 2 0
VVECTOR 7 23
SWIDTH1 0 -1208
DWIDTH1 0 -29
BITMAP 
C180
C180
C180
C180
C180
C180
C180
C180
C180
6380
7F80
1D80
ENDCHAR
STARTCHAR v
ENCODING 118
SWIDTH 458 0
DWIDTH 11 0
BBX 11 12 0 0
VVECTOR 6 23
SWIDTH1 0 -1208
DWIDTH1 0 -29
BITMAP 
C060
C060
E0E0
60C0
71C0
3180
3180
3B80
1B00
1F00
0E00
0E00
ENDCHAR
STARTCHAR w
ENCODING 119
SWIDTH 750 0
DWIDTH 18 0
BBX 18 12 0 0
VVECTOR 9 23
SWIDTH1 0 -1208
DWIDTH1 0 -29
BITMAP 
C0C0C0
C0C0C0
E1E1C0
61E180
73F380
333300
333300
3F3F00
1E1E00
1E1E00
0C0C00
0C0C00
ENDCHAR
STARTCHAR x
ENCODING 120
SWIDTH 458 0
DWIDTH 11 0
BBX 11 12 0 0
VVECTOR 6 23
SWIDTH1 0 -1208
DWIDTH1 0 -29
BITMAP 
C060
E0E0
71C0
3B80
1F00
0E00
0E00
1F00
3B80
71C0
E0E0
C060
ENDCHAR
STARTCHAR y
ENCODING 121
SWIDTH 458 0
DWIDTH 11 0
BBX 11 17 0 -5
VVECTOR 6 23
SWIDTH1 0 -1208
DWIDTH1 0 -29
BITMAP 
C060
C060
E0E0
60C0
71C0
3180
3180
3B80
1B00
1F00
0E00
0E00
0C00
1C00
1800
F800
F000
ENDCHAR
STARTCHAR z
ENCODING 122
SWIDTH 458 0
DWIDTH 11 0
BBX 11 12 0 0
VVECTOR 6 23
SWIDTH1 0 -1208
DWIDTH1 0 -29
BITMAP 
7FE0
7FE0
01C0
0380
0700
0E00
0E00
1C00
3800
7000
FFE0
FFE0
ENDCHAR
STARTCHAR braceleft
ENCODING 123
SWIDTH 375 0
DWIDTH 9 0
BBX 6 22 1 -5
VVECTOR 4 23
SWIDTH1 0 -1208
DWIDTH1 0 -29
BITMAP 
0C
1C
38
30
30
30
30
30
30
60
C0
C0
60
30
30
30
30
30
30
38
1C
0C
ENDCHAR
STARTCHAR bar
ENCODING 124
SWIDTH 250 0
DWIDTH 6 0
BBX 2 23 2 -6
VVECTOR 3 23
SWIDTH1 0 -1208
DWIDTH1 0 -29
BITMAP 
C0
C0
C0
C0
C0
C0
C0
C0
C0
C0
C0
C0
C0
C0
C0
C0
C0
C0
C0
C0
C0
C0
C0
ENDCHAR
STARTCHAR braceright
ENCODING 125
SWIDTH 375 0
DWIDTH 9 0
BBX 6 22 1 -5
VVECTOR 4 23
SWIDTH1 0 -1208
DWIDTH1 0 -29
BITMAP 
C0
E0
60
30
30
30
30
30
30
18
0C
0C
18
30
30
30
30
30
30
60
E0
C0
ENDCHAR
STARTCHAR asciitilde
ENCODING 126
SWIDTH 333 0
DWIDTH 8 0
BBX 8 3 0 17
VVECTOR 4 23
SWIDTH1 0 -1208
DWIDTH1 0 -29
BITMAP 
33
7E
CC
ENDCHAR
STARTCHAR house
ENCODING 127
SWIDTH 750 0
DWIDTH 18 0
BBX 14 16 2 0
VVECTOR 9 23
SWIDTH1 0 -1208
DWIDTH1 0 -29
BITMAP 
0300
0780
0FC0
1CE0
3870
7038
E01C
C00C
C00C
C00C
C00C
C00C
C00C
C00C
FFFC
FFFC
ENDCHAR
STARTCHAR Ccedilla
ENCODING 128
SWIDTH 708 0
DWIDTH 17 0
BBX 16 22 1 -5
VVECTOR 10 23
SWIDTH1 0 -1208
DWIDTH1 0 -29
BITMAP 
07F0
1FFC
3C1E
7006
6003
E003
C000
C000
C000
C000
C000
E003
6003
7006
3C1E
1FFC
07F0
00C0
0060
0030
0030
01E0
ENDCHAR
STARTCHAR udieresis
ENCODING 129
SWIDTH 542 0
DWIDTH 13 0
BBX 9 17 2 0
VVECTOR 7 23
SWIDTH1 0 -1208
DWIDTH1 0 -29
BITMAP 
6300
6300
0000
0000
0000
C180
C180
C180
C180
C180
C180
C180
C180
C180
6380
7F80
1D80
ENDCHAR
STARTCHAR eacute
ENCODING 130
SWIDTH 583 0
DWIDTH 14 0
BBX 12 17 1 0
VVECTOR 7 23
SWIDTH1 0 -1208
DWIDTH1 0 -29
BITMAP 
0700
0E00
1800
0000
0000
0F00
3FC0
70E0
6060
C030
FFF0
FFF0
C000
6000
7070
3FE0
0F80
ENDCHAR
STARTCHAR acircumflex
ENCODING 131
SWIDTH 542 0
DWIDTH 13 0
BBX 12 17 1 0
VVECTOR 8 23
SWIDTH1 0 -1208
DWIDTH1 0 -29
BITMAP 
1C00
3600
6300
0000
0000
1E00
7F80
6180
00C0
01C0
1FC0
7EC0
E0C0
C0C0
E1C0
7FF0
3E70
ENDCHAR
STARTCHAR adieresis
ENCODING 132
SWIDTH 542 0
DWIDTH 13 0
BBX 12 17 1 0
VVECTOR 8 23
SWIDTH1 0 -1208
DWIDTH1 0 -29
BITMAP 
6300
6300
0000
0000
0000
1E00
7F80
6180
00C0
01C0
1FC0
7EC0
E0C0
C0C0
E1C0
7FF0
3E70
ENDCHAR
STARTCHAR agrave
ENCODING 133
SWIDTH 542 0
DWIDTH 13 0
BBX 12 17 1 0
VVECTOR 8 23
SWIDTH1 0 -1208
DWIDTH1 0 -29
BITMAP 
3800
1C00
0600
0000
0000
1E00
7F80
6180
00C0
01C0
1FC0
7EC0
E0C0
C0C0
E1C0
7FF0
3E70
ENDCHAR
STARTCHAR aring
ENCODING 134
SWIDTH 542 0
DWIDTH 13 0
BBX 12 17 1 0
VVECTOR 8 23
SWIDTH1 0 -1208
DWIDTH1 0 -29
BITMAP 
1C00
3600
6300
6300
3600
1E00
7F80
6180
00C0
01C0
1FC0
7EC0
E0C0
C0C0
E1C0
7FF0
3E70
ENDCHAR
STARTCHAR ccedilla
ENCODING 135
SWIDTH 500 0
DWIDTH 12 0
BBX 11 17 1 -5
VVECTOR 7 23
SWIDTH1 0 -1208
DWIDTH1 0 -29
BITMAP 
0F00
3FC0
70E0
6060
C000
C000
C000
C000
6060
70E0
3FC0
0F00
0600
0700
0180
0180
0F00
ENDCHAR
STARTCHAR ecircumflex
ENCODING 136
SWIDTH 583 0
DWIDTH 14 0
BBX 12 17 1 0
VVECTOR 7 23
SWIDTH1 0 -1208
DWIDTH1 0 -29
BITMAP 
0E00
1B00
3180
0000
0000
0F00
3FC0
70E0
6060
C030
FFF0
FFF0
C000
6000
7070
3FE0
0F80
ENDCHAR
STARTCHAR edieresis
ENCODING 137
SWIDTH 583 0
DWIDTH 14 0
BBX 12 17 1 0
VVECTOR 7 23
SWIDTH1 0 -1208
DWIDTH1 0 -29
BITMAP 
3180
3180
0000
0000
0000
0F00
3FC0
70E0
6060
C030
FFF0
FFF0
C000
6000
7070
3FE0
0F80
ENDCHAR
STARTCHAR egrave
ENCODING 138
SWIDTH 583 0
DWIDTH 14 0
BBX 12 17 1 0
VVECTOR 7 23
SWIDTH1 0 -1208
DWIDTH1 0 -29
BITMAP 
1C00
0E00
0300
0000
0000
0F00
3FC0
70E0
6060
C030
FFF0
FFF0
C000
6000
7070
3FE0
0F80
ENDCHAR
STARTCHAR idieresis
ENCODING 139
SWIDTH 250 0
DWIDTH 6 0
BBX 6 17 0 0
VVECTOR 3 23
SWIDTH1 0 -1208
DWIDTH1 0 -29
BITMAP 
CC
CC
00
00
00
30
30
30
30
30
30
30
30
30
30
30
30
ENDCHAR
STARTCHAR icircumflex
ENCODING 140
SWIDTH 250 0
DWIDTH 6 0
BBX 6 17 0 0
VVECTOR 3 23
SWIDTH1 0 -1208
DWIDTH1 0 -29
BITMAP 
30
78
CC
00
00
30
30
30
30
30
30
30
30
30
30
30
30
ENDCHAR
STARTCHAR igrave
ENCODING 141
SWIDTH 250 0
DWIDTH 6 0
BBX 5 17 0 0
VVECTOR 2 23
SWIDTH1 0 -1208
DWIDTH1 0 -29
BITMAP 
E0
70
18
00
00
30
30
30
30
30
30
30
30
30
30
30
30
ENDCHAR
STARTCHAR Adieresis
ENCODING 142
SWIDTH 625 0
DWIDTH 15 0
BBX 15 22 0 0
VVECTOR 8 23
SWIDTH1 0 -1208
DWIDTH1 0 -29
BITMAP 
0C60
0C60
0000
0000
0000
0380
0380
07C0
06C0
06C0
0EE0
0C60
0C60
1C70
1830
3838
3FF8
3FF8
701C
600C
E00E
E00E
ENDCHAR
STARTCHAR Aring
ENCODING 143
SWIDTH 625 0
DWIDTH 15 0
BBX 15 22 0 0
VVECTOR 8 23
SWIDTH1 0 -1208
DWIDTH1 0 -29
BITMAP 
0380
0440
0440
0440
0380
0380
0380
07C0
06C0
06C0
0EE0
0C60
0C60
1C70
1830
3838
3FF8
3FF8
701C
600C
E00E
E00E
ENDCHAR
STARTCHAR Eacute
ENCODING 144
SWIDTH 667 0
DWIDTH 16 0
BBX 13 22 2 0
VVECTOR 9 23
SWIDTH1 0 -1208
DWIDTH1 0 -29
BITMAP 
0700
0E00
1800
0000
0000
FFF8
FFF8
C000
C000
C000
C000
C000
FFF0
FFF0
C000
C000
C000
C000
C000
C000
FFF8
FFF8
ENDCHAR
STARTCHAR ae
ENCODING 145
SWIDTH 875 0
DWIDTH 21 0
BBX 19 12 1 0
VVECTOR 11 23
SWIDTH1 0 -1208
DWIDTH1 0 -29
BITMAP 
1E1E00
7FFF80
61E1C0
00C0E0
01C060
1FFFE0
7EFFE0
E0C000
C0C000
E1E0E0
7FFFC0
3E1F00
ENDCHAR
STARTCHAR AE
ENCODING 146
SWIDTH 1000 0
DWIDTH 24 0
BBX 23 17 0 0
VVECTOR 11 23
SWIDTH1 0 -1208
DWIDTH1 0 -29
BITMAP 
003FFE
003FFE
006C00
00EC00
00CC00
018C00
038C00
030FFC
060FFC
0E0C00
0FFC00
1FFC00
380C00
300C00
600C00
E00FFE
C00FFE
ENDCHAR
STARTCHAR ocircumflex
ENCODING 147
SWIDTH 583 0
DWIDTH 14 0
BBX 12 17 1 0
VVECTOR 7 23
SWIDTH1 0 -1208
DWIDTH1 0 -29
BITMAP 
0E00
1B00
3180
0000
0000
1F80
7FE0
70E0
E070
C030
C030
C030
C030
E070
70E0
7FE0
1F80
ENDCHAR
STARTCHAR odieresis
ENCODING 148
SWIDTH 583 0
DWIDTH 14 0
BBX 12 17 1 0
VVECTOR 7 23
SWIDTH1 0 -1208
DWIDTH1 0 -29
BITMAP 
30C0
30C0
0000
0000
0000
1F80
7FE0
70E0
E070
C030
C030
C030
C030
E070
70E0
7FE0
1F80
ENDCHAR
STARTCHAR ograve
ENCODING 149
SWIDTH 583 0
DWIDTH 14 0
BBX 12 17 1 0
VVECTOR 7 23
SWIDTH1 0 -1208
DWIDTH1 0 -29
BITMAP 
1C00
0E00
0300
0000
0000
1F80
7FE0
70E0
E070
C030
C030
C030
C030
E070
70E0
7FE0
1F80
ENDCHAR
STARTCHAR ucircumflex
ENCODING 150
SWIDTH 542 0
DWIDTH 13 0
BBX 9 17 2 0
VVECTOR 7 23
SWIDTH1 0 -1208
DWIDTH1 0 -29
BITMAP 
1C00
3600
6300
0000
0000
C180
C180
C180
C180
C180
C180
C180
C180
C180
6380
7F80
1D80
ENDCHAR
STARTCHAR ugrave
ENCODING 151
SWIDTH 542 0
DWIDTH 13 0
BBX 9 17 2 0
VVECTOR 7 23
SWIDTH1 0 -1208
DWIDTH1 0 -29
BITMAP 
3800
1C00
0600
0000
0000
C180
C180
C180
C180
C180
C180
C180
C180
C180
6380
7F80
1D80
ENDCHAR
STARTCHAR ydieresis
ENCODING 152
SWIDTH 458 0
DWIDTH 11 0
BBX 11 22 0 -5
VVECTOR 6 23
SWIDTH1 0 -1208
DWIDTH1 0 -29
BITMAP 
3180
3180
0000
0000
0000
C060
C060
E0E0
60C0
71C0
3180
3180
3B80
1B00
1F00
0E00
0E00
0C00
0C00
1800
F800
F000
ENDCHAR
STARTCHAR Odieresis
ENCODING 153
SWIDTH 792 0
DWIDTH 19 0
BBX 17 22 1 0
VVECTOR 10 23
SWIDTH1 0 -1208
DWIDTH1 0 -29
BITMAP 
0C1800
0C1800
000000
000000
000000
07F000
1FFC00
3C1E00
700700
600300
E00380
C00180
C00180
C00180
C00180
C00180
E00380
600300
700700
3C1E00
1FFC00
07F000
ENDCHAR
STARTCHAR Udieresis
ENCODING 154
SWIDTH 708 0
DWIDTH 17 0
BBX 13 22 2 0
VVECTOR 9 23
SWIDTH1 0 -1208
DWIDTH1 0 -29
BITMAP 
18C0
18C0
0000
0000
0000
C018
C018
C018
C018
C018
C018
C018
C018
C018
C018
C018
C018
C018
6030
7070
3FE0
0F80
ENDCHAR
STARTCHAR oslash
ENCODING 155
SWIDTH 583 0
DWIDTH 14 0
BBX 12 12 1 0
VVECTOR 7 23
SWIDTH1 0 -1208
DWIDTH1 0 -29
BITMAP 
1FB0
7FE0
70E0
E170
C230
C230
C430
C830
E870
70E0
7FE0
CF80
ENDCHAR
STARTCHAR sterling
ENCODING 156
SWIDTH 542 0
DWIDTH 13 0
BBX 11 17 1 0
VVECTOR 7 23
SWIDTH1 0 -1208
DWIDTH1 0 -29
BITMAP 
0F80
1FC0
38E0
3060
3000
3000
3000
FE00
FE00
1800
1800
1800
1800
3000
7E60
FFE0
67C0
ENDCHAR
STARTCHAR Oslash
ENCODING 157
SWIDTH 792 0
DWIDTH 19 0
BBX 17 17 1 0
VVECTOR 10 23
SWIDTH1 0 -1208
DWIDTH1 0 -29
BITMAP 
07F080
1FFD80
3C1F00
700700
600F00
E01B80
C03180
C06180
C0C180
C18180
C30180
E60380
6C0300
780700
3C1E00
7FFC00
C7F000
ENDCHAR
STARTCHAR multiply
ENCODING 158
SWIDTH 583 0
DWIDTH 14 0
BBX 10 10 2 3
VVECTOR 7 23
SWIDTH1 0 -1208
DWIDTH1 0 -29
BITMAP 
4080
E1C0
7380
3F00
1E00
1E00
3F00
7380
E1C0
4080
ENDCHAR
STARTCHAR florin
ENCODING 159
SWIDTH 542 0
DWIDTH 13 0
BBX 13 20 0 -4
VVECTOR 7 23
SWIDTH1 0 -1208
DWIDTH1 0 -29
BITMAP 
0078
00F8
01C0
0180
0380
0300
1FE0
1FE0
0300
0700
0600
0600
0600
0600
0E00
0C00
0C00
1C00
F800
F000
ENDCHAR
STARTCHAR aacute
ENCODING 160
SWIDTH 542 0
DWIDTH 13 0
BBX 12 17 1 0
VVECTOR 8 23
SWIDTH1 0 -1208
DWIDTH1 0 -29
BITMAP 
0700
0E00
1800
0000
0000
1E00
7F80
6180
00C0
01C0
1FC0
7EC0
E0C0
C0C0
E1C0
7FF0
3E70
ENDCHAR
STARTCHAR iacute
ENCODING 161
SWIDTH 250 0
DWIDTH 6 0
BBX 5 17 1 0
VVECTOR 4 23
SWIDTH1 0 -1208
DWIDTH1 0 -29
BITMAP 
38
70
C0
00
00
60
60
60
60
60
60
60
60
60
60
60
60
ENDCHAR
STARTCHAR oacute
ENCODING 162
SWIDTH 583 0
DWIDTH 14 0
BBX 12 17 1 0
VVECTOR 7 23
SWIDTH1 0 -1208
DWIDTH1 0 -29
BITMAP 
0380
0700
0C00
0000
0000
1F80
7FE0
70E0
E070
C030
C030
C030
C030
E070
70E0
7FE0
1F80
ENDCHAR
STARTCHAR uacute
ENCODING 163
SWIDTH 542 0
DWIDTH 13 0
BBX 9 17 2 0
VVECTOR 7 23
SWIDTH1 0 -1208
DWIDTH1 0 -29
BITMAP 
0E00
1C00
3000
0000
0000
C180
C180
C180
C180
C180
C180
C180
C180
C180
6380
7F80
1D80
ENDCHAR
STARTCHAR ntilde
ENCODING 164
SWIDTH 542 0
DWIDTH 13 0
BBX 9 17 2 0
VVECTOR 7 23
SWIDTH1 0 -1208
DWIDTH1 0 -29
BITMAP 
3880
7F80
4700
0000
0000
CC00
FF00
E300
C180
C180
C180
C180
C180
C180
C180
C180
C180
ENDCHAR
STARTCHAR Ntilde
ENCODING 165
SWIDTH 750 0
DWIDTH 18 0
BBX 14 22 2 0
VVECTOR 9 23
SWIDTH1 0 -1208
DWIDTH1 0 -29
BITMAP 
0E30
1FE0
31C0
0000
0000
C00C
E00C
F00C
F80C
D80C
DC0C
CE0C
C70C
C30C
C38C
C1CC
C0EC
C06C
C07C
C03C
C01C
C00C
ENDCHAR
STARTCHAR ordfeminine
ENCODING 166
SWIDTH 333 0
DWIDTH 8 0
BBX 7 11 1 6
VVECTOR 5 23
SWIDTH1 0 -1208
DWIDTH1 0 -29
BITMAP 
78
CC
CC
3C
6C
CC
CC
76
00
FE
FE
ENDCHAR
STARTCHAR ordmasculine
ENCODING 167
SWIDTH 333 0
DWIDTH 8 0
BBX 7 11 1 6
VVECTOR 5 23
SWIDTH1 0 -1208
DWIDTH1 0 -29
BITMAP 
38
6C
C6
C6
C6
C6
6C
38
00
FE
FE
ENDCHAR
STARTCHAR questiondown
ENCODING 168
SWIDTH 500 0
DWIDTH 12 0
BBX 10 17 1 0
VVECTOR 6 23
SWIDTH1 0 -1208
DWIDTH1 0 -29
BITMAP 
0C00
0C00
0000
0000
0000
0C00
0C00
0C00
1C00
3800
7000
E000
C000
C0C0
61C0
7F80
1E00
ENDCHAR
STARTCHAR registered
ENCODING 169
SWIDTH 833 0
DWIDTH 20 0
BBX 16 17 2 0
VVECTOR 10 23
SWIDTH1 0 -1208
DWIDTH1 0 -29
BITMAP 
07E0
1C38
300C
6FC6
4C62
CC33
8C31
8C61
8FC1
8C61
8C31
CC33
4C32
6C36
300C
1C38
07E0
ENDCHAR
STARTCHAR logicalnot
ENCODING 170
SWIDTH 583 0
DWIDTH 14 0
BBX 11 6 1 4
VVECTOR 6 23
SWIDTH1 0 -1208
DWIDTH1 0 -29
BITMAP 
FFE0
FFE0
0060
0060
0060
0060
ENDCHAR
STARTCHAR onehalf
ENCODING 171
SWIDTH 750 0
DWIDTH 18 0
BBX 16 17 1 0
VVECTOR 9 23
SWIDTH1 0 -1208
DWIDTH1 0 -29
BITMAP 
300C
F00C
3018
3030
3030
3060
30C0
30C0
0180
031E
0333
0603
0C06
0C0C
1818
3030
303F
ENDCHAR
STARTCHAR onequarter
ENCODING 172
SWIDTH 750 0
DWIDTH 18 0
BBX 16 17 1 0
VVECTOR 9 23
SWIDTH1 0 -1208
DWIDTH1 0 -29
BITMAP 
300C
F00C
3018
3030
3030
3060
30C0
30C0
0180
0303
0307
060F
0C1B
0C33
183F
3003
3003
ENDCHAR
STARTCHAR exclamdown
ENCODING 173
SWIDTH 250 0
DWIDTH 6 0
BBX 2 17 2 0
VVECTOR 3 23
SWIDTH1 0 -1208
DWIDTH1 0 -29
BITMAP 
C0
C0
00
00
C0
C0
C0
C0
C0
C0
C0
C0
C0
C0
C0
C0
C0
ENDCHAR
STARTCHAR guillemotleft
ENCODING 174
SWIDTH 542 0
DWIDTH 13 0
BBX 9 8 2 2
VVECTOR 7 23
SWIDTH1 0 -1208
DWIDTH1 0 -29
BITMAP 
1080
3180
6300
C600
C600
6300
3180
1080
ENDCHAR
STARTCHAR guillemotright
ENCODING 175
SWIDTH 542 0
DWIDTH 13 0
BBX 9 8 2 2
VVECTOR 7 23
SWIDTH1 0 -1208
DWIDTH1 0 -29
BITMAP 
8400
C600
6300
3180
3180
6300
C600
8400
ENDCHAR
STARTCHAR ltshade
ENCODING 176
SWIDTH 625 0
DWIDTH 15 0
BBX 15 21 0 -1
VVECTOR 8 23
SWIDTH1 0 -1208
DWIDTH1 0 -29
BITMAP 
E38E
E38E
E38E
0000
0000
0000
E38E
E38E
E38E
0000
0000
0000
E38E
E38E
E38E
0000
0000
0000
E38E
E38E
E38E
ENDCHAR
STARTCHAR shade
ENCODING 177
SWIDTH 625 0
DWIDTH 15 0
BBX 15 27 0 -4
VVECTOR 8 23
SWIDTH1 0 -1208
DWIDTH1 0 -29
BITMAP 
0380
0380
0380
E00E
E00E
E00E
0380
0380
0380
E00E
E00E
E00E
0380
0380
0380
E00E
E00E
E00E
0380
0380
0380
E00E
E00E
E00E
0380
0380
0380
ENDCHAR
STARTCHAR dkshade
ENCODING 178
SWIDTH 625 0
DWIDTH 15 0
BBX 15 27 0 -4
VVECTOR 8 23
SWIDTH1 0 -1208
DWIDTH1 0 -29
BITMAP 
1C70
1C70
1C70
E38E
E38E
E38E
1C70
1C70
1C70
E38E
E38E
E38E
1C70
1C70
1C70
E38E
E38E
E38E
1C70
1C70
1C70
E38E
E38E
E38E
1C70
1C70
1C70
ENDCHAR
STARTCHAR SF110000
ENCODING 179
SWIDTH 625 0
DWIDTH 15 0
BBX 2 29 6 -6
VVECTOR 7 23
SWIDTH1 0 -1208
DWIDTH1 0 -29
BITMAP 
C0
C0
C0
C0
C0
C0
C0
C0
C0
C0
C0
C0
C0
C0
C0
C0
C0
C0
C0
C0
C0
C0
C0
C0
C0
C0
C0
C0
C0
ENDCHAR
STARTCHAR SF090000
ENCODING 180
SWIDTH 625 0
DWIDTH 15 0
BBX 8 29 0 -6
VVECTOR 1 23
SWIDTH1 0 -1208
DWIDTH1 0 -29
BITMAP 
03
03
03
03
03
03
03
03
03
03
03
FF
FF
03
03
03
03
03
03
03
03
03
03
03
03
03
03
03
03
ENDCHAR
STARTCHAR Aacute
ENCODING 181
SWIDTH 625 0
DWIDTH 15 0
BBX 15 22 0 0
VVECTOR 8 23
SWIDTH1 0 -1208
DWIDTH1 0 -29
BITMAP 
01C0
0380
0600
0000
0000
0380
0380
07C0
06C0
06C0
0EE0
0C60
0C60
1C70
1830
3838
3FF8
3FF8
701C
600C
E00E
E00E
ENDCHAR
STARTCHAR Acircumflex
ENCODING 182
SWIDTH 625 0
DWIDTH 15 0
BBX 15 22 0 0
VVECTOR 8 23
SWIDTH1 0 -1208
DWIDTH1 0 -29
BITMAP 
0380
07C0
0C60
0000
0000
0380
0380
07C0
06C0
06C0
0EE0
0C60
0C60
1C70
1830
3838
3FF8
3FF8
701C
600C
E00E
E00E
ENDCHAR
STARTCHAR Agrave
ENCODING 183
SWIDTH 625 0
DWIDTH 15 0
BBX 15 22 0 0
VVECTOR 8 23
SWIDTH1 0 -1208
DWIDTH1 0 -29
BITMAP 
0700
0380
00C0
0000
0000
0380
0380
07C0
06C0
06C0
0EE0
0C60
0C60
1C70
1830
3838
3FF8
3FF8
701C
600C
E00E
E00E
ENDCHAR
STARTCHAR copyright
ENCODING 184
SWIDTH 833 0
DWIDTH 20 0
BBX 16 17 2 0
VVECTOR 10 23
SWIDTH1 0 -1208
DWIDTH1 0 -29
BITMAP 
07E0
1C38
300C
63C6
4662
CC33
8C31
8C01
8C01
8C01
8C31
CC33
4662
63C6
300C
1C38
07E0
ENDCHAR
STARTCHAR SF230000
ENCODING 185
SWIDTH 625 0
DWIDTH 15 0
BBX 10 29 0 -6
VVECTOR 3 23
SWIDTH1 0 -1208
DWIDTH1 0 -29
BITMAP 
0CC0
0CC0
0CC0
0CC0
0CC0
0CC0
0CC0
0CC0
0CC0
FCC0
FCC0
00C0
00C0
FCC0
FCC0
0CC0
0CC0
0CC0
0CC0
0CC0
0CC0
0CC0
0CC0
0CC0
0CC0
0CC0
0CC0
0CC0
0CC0
ENDCHAR
STARTCHAR SF240000
ENCODING 186
SWIDTH 625 0
DWIDTH 15 0
BBX 6 29 4 -6
VVECTOR 7 23
SWIDTH1 0 -1208
DWIDTH1 0 -29
BITMAP 
CC
CC
CC
CC
CC
CC
CC
CC
CC
CC
CC
CC
CC
CC
CC
CC
CC
CC
CC
CC
CC
CC
CC
CC
CC
CC
CC
CC
CC
ENDCHAR
STARTCHAR SF250000
ENCODING 187
SWIDTH 625 0
DWIDTH 15 0
BBX 10 20 0 -6
VVECTOR 3 23
SWIDTH1 0 -1208
DWIDTH1 0 -29
BITMAP 
FFC0
FFC0
00C0
00C0
FCC0
FCC0
0CC0
0CC0
0CC0
0CC0
0CC0
0CC0
0CC0
0CC0
0CC0
0CC0
0CC0
0CC0
0CC0
0CC0
ENDCHAR
STARTCHAR SF260000
ENCODING 188
SWIDTH 625 0
DWIDTH 15 0
BBX 10 15 0 8
VVECTOR 3 23
SWIDTH1 0 -1208
DWIDTH1 0 -29
BITMAP 
0CC0
0CC0
0CC0
0CC0
0CC0
0CC0
0CC0
0CC0
0CC0
FCC0
FCC0
00C0
00C0
FFC0
FFC0
ENDCHAR
STARTCHAR cent
ENCODING 189
SWIDTH 542 0
DWIDTH 13 0
BBX 11 16 1 -2
VVECTOR 7 23
SWIDTH1 0 -1208
DWIDTH1 0 -29
BITMAP 
0080
0180
0F00
3FC0
73E0
6260
C600
C400
C400
CC00
6860
78E0
3FC0
1F00
3000
2000
ENDCHAR
STARTCHAR yen
ENCODING 190
SWIDTH 542 0
DWIDTH 13 0
BBX 12 17 0 0
VVECTOR 6 23
SWIDTH1 0 -1208
DWIDTH1 0 -29
BITMAP 
C030
C030
6060
30C0
30C0
1980
0F00
0F00
7FE0
0600
0600
7FE0
0600
0600
0600
0600
0600
ENDCHAR
STARTCHAR SF030000
ENCODING 191
SWIDTH 625 0
DWIDTH 15 0
BBX 8 18 0 -6
VVECTOR 1 23
SWIDTH1 0 -1208
DWIDTH1 0 -29
BITMAP 
FF
FF
03
03
03
03
03
03
03
03
03
03
03
03
03
03
03
03
ENDCHAR
STARTCHAR SF020000
ENCODING 192
SWIDTH 625 0
DWIDTH 15 0
BBX 9 13 6 10
VVECTOR 14 23
SWIDTH1 0 -1208
DWIDTH1 0 -29
BITMAP 
C000
C000
C000
C000
C000
C000
C000
C000
C000
C000
C000
FF80
FF80
ENDCHAR
STARTCHAR SF070000
ENCODING 193
SWIDTH 625 0
DWIDTH 15 0
BBX 15 13 0 10
VVECTOR 8 23
SWIDTH1 0 -1208
DWIDTH1 0 -29
BITMAP 
0300
0300
0300
0300
0300
0300
0300
0300
0300
0300
0300
FFFE
FFFE
ENDCHAR
STARTCHAR SF060000
ENCODING 194
SWIDTH 625 0
DWIDTH 15 0
BBX 15 18 0 -6
VVECTOR 8 23
SWIDTH1 0 -1208
DWIDTH1 0 -29
BITMAP 
FFFE
FFFE
0300
0300
0300
0300
0300
0300
0300
0300
0300
0300
0300
0300
0300
0300
0300
0300
ENDCHAR
STARTCHAR SF080000
ENCODING 195
SWIDTH 625 0
DWIDTH 15 0
BBX 9 29 6 -6
VVECTOR 14 23
SWIDTH1 0 -1208
DWIDTH1 0 -29
BITMAP 
C000
C000
C000
C000
C000
C000
C000
C000
C000
C000
C000
FF80
FF80
C000
C000
C000
C000
C000
C000
C000
C000
C000
C000
C000
C000
C000
C000
C000
C000
ENDCHAR
STARTCHAR SF100000
ENCODING 196
SWIDTH 625 0
DWIDTH 15 0
BBX 15 2 0 10
VVECTOR 8 23
SWIDTH1 0 -1208
DWIDTH1 0 -29
BITMAP 
FFFE
FFFE
ENDCHAR
STARTCHAR SF050000
ENCODING 197
SWIDTH 625 0
DWIDTH 15 0
BBX 15 29 0 -6
VVECTOR 8 23
SWIDTH1 0 -1208
DWIDTH1 0 -29
BITMAP 
0300
0300
0300
0300
0300
0300
0300
0300
0300
0300
0300
FFFE
FFFE
0300
0300
0300
0300
0300
0300
0300
0300
0300
0300
0300
0300
0300
0300
0300
0300
ENDCHAR
STARTCHAR atilde
ENCODING 198
SWIDTH 542 0
DWIDTH 13 0
BBX 12 17 1 0
VVECTOR 8 23
SWIDTH1 0 -1208
DWIDTH1 0 -29
BITMAP 
38C0
7F80
C700
0000
0000
1E00
7F80
6180
00C0
01C0
1FC0
7EC0
E0C0
C0C0
E1C0
7FF0
3E70
ENDCHAR
STARTCHAR Atilde
ENCODING 199
SWIDTH 625 0
DWIDTH 15 0
BBX 15 22 0 0
VVECTOR 8 23
SWIDTH1 0 -1208
DWIDTH1 0 -29
BITMAP 
0718
0FF0
18E0
0000
0000
0380
0380
07C0
06C0
06C0
0EE0
0C60
0C60
1C70
1830
3838
3FF8
3FF8
701C
600C
E00E
E00E
ENDCHAR
STARTCHAR SF380000
ENCODING 200
SWIDTH 625 0
DWIDTH 15 0
BBX 11 15 4 8
VVECTOR 12 23
SWIDTH1 0 -1208
DWIDTH1 0 -29
BITMAP 
CC00
CC00
CC00
CC00
CC00
CC00
CC00
CC00
CC00
CFE0
CFE0
C000
C000
FFE0
FFE0
ENDCHAR
STARTCHAR SF390000
ENCODING 201
SWIDTH 625 0
DWIDTH 15 0
BBX 11 20 4 -6
VVECTOR 12 23
SWIDTH1 0 -1208
DWIDTH1 0 -29
BITMAP 
FFE0
FFE0
C000
C000
CFE0
CFE0
CC00
CC00
CC00
CC00
CC00
CC00
CC00
CC00
CC00
CC00
CC00
CC00
CC00
CC00
ENDCHAR
STARTCHAR SF400000
ENCODING 202
SWIDTH 625 0
DWIDTH 15 0
BBX 15 15 0 8
VVECTOR 8 23
SWIDTH1 0 -1208
DWIDTH1 0 -29
BITMAP 
0CC0
0CC0
0CC0
0CC0
0CC0
0CC0
0CC0
0CC0
0CC0
FCFE
FCFE
0000
0000
FFFE
FFFE
ENDCHAR
STARTCHAR SF410000
ENCODING 203
SWIDTH 625 0
DWIDTH 15 0
BBX 15 20 0 -6
VVECTOR 8 23
SWIDTH1 0 -1208
DWIDTH1 0 -29
BITMAP 
FFFE
FFFE
0000
0000
FCFE
FCFE
0CC0
0CC0
0CC0
0CC0
0CC0
0CC0
0CC0
0CC0
0CC0
0CC0
0CC0
0CC0
0CC0
0CC0
ENDCHAR
STARTCHAR SF420000
ENCODING 204
SWIDTH 625 0
DWIDTH 15 0
BBX 11 29 4 -6
VVECTOR 12 23
SWIDTH1 0 -1208
DWIDTH1 0 -29
BITMAP 
CC00
CC00
CC00
CC00
CC00
CC00
CC00
CC00
CC00
CFE0
CFE0
C000
C000
CFE0
CFE0
CC00
CC00
CC00
CC00
CC00
CC00
CC00
CC00
CC00
CC00
CC00
CC00
CC00
CC00
ENDCHAR
STARTCHAR SF430000
ENCODING 205
SWIDTH 625 0
DWIDTH 15 0
BBX 15 6 0 8
VVECTOR 8 23
SWIDTH1 0 -1208
DWIDTH1 0 -29
BITMAP 
FFFE
FFFE
0000
0000
FFFE
FFFE
ENDCHAR
STARTCHAR SF440000
ENCODING 206
SWIDTH 625 0
DWIDTH 15 0
BBX 15 29 0 -6
VVECTOR 8 23
SWIDTH1 0 -1208
DWIDTH1 0 -29
BITMAP 
0CC0
0CC0
0CC0
0CC0
0CC0
0CC0
0CC0
0CC0
0CC0
FCFE
FCFE
0000
0000
FCFE
FCFE
0CC0
0CC0
0CC0
0CC0
0CC0
0CC0
0CC0
0CC0
0CC0
0CC0
0CC0
0CC0
0CC0
0CC0
ENDCHAR
STARTCHAR currency
ENCODING 207
SWIDTH 542 0
DWIDTH 13 0
BBX 11 11 1 5
VVECTOR 7 23
SWIDTH1 0 -1208
DWIDTH1 0 -29
BITMAP 
4040
EEE0
7FC0
3180
60C0
60C0
60C0
3180
7FC0
EEE0
4040
ENDCHAR
STARTCHAR eth
ENCODING 208
SWIDTH 583 0
DWIDTH 14 0
BBX 12 17 1 0
VVECTOR 7 23
SWIDTH1 0 -1208
DWIDTH1 0 -29
BITMAP 
7300
3E00
0F00
1B80
01C0
1EE0
7FE0
71F0
E070
C030
C030
C030
C030
E070
70E0
7FE0
1F80
ENDCHAR
STARTCHAR Eth
ENCODING 209
SWIDTH 708 0
DWIDTH 17 0
BBX 16 17 0 0
VVECTOR 8 23
SWIDTH1 0 -1208
DWIDTH1 0 -29
BITMAP 
3FE0
3FF8
303C
300E
3006
3007
3003
FC03
FC03
3003
3003
3007
3006
300E
303C
3FF8
3FE0
ENDCHAR
STARTCHAR Ecircumflex
ENCODING 210
SWIDTH 667 0
DWIDTH 16 0
BBX 13 22 2 0
VVECTOR 9 23
SWIDTH1 0 -1208
DWIDTH1 0 -29
BITMAP 
0700
0D80
18C0
0000
0000
FFF8
FFF8
C000
C000
C000
C000
C000
FFF0
FFF0
C000
C000
C000
C000
C000
C000
FFF8
FFF8
ENDCHAR
STARTCHAR Edieresis
ENCODING 211
SWIDTH 667 0
DWIDTH 16 0
BBX 13 22 2 0
VVECTOR 9 23
SWIDTH1 0 -1208
DWIDTH1 0 -29
BITMAP 
30C0
30C0
0000
0000
0000
FFF8
FFF8
C000
C000
C000
C000
C000
FFF0
FFF0
C000
C000
C000
C000
C000
C000
FFF8
FFF8
ENDCHAR
STARTCHAR Egrave
ENCODING 212
SWIDTH 667 0
DWIDTH 16 0
BBX 13 22 2 0
VVECTOR 9 23
SWIDTH1 0 -1208
DWIDTH1 0 -29
BITMAP 
1C00
0E00
0300
0000
0000
FFF8
FFF8
C000
C000
C000
C000
C000
FFF0
FFF0
C000
C000
C000
C000
C000
C000
FFF8
FFF8
ENDCHAR
STARTCHAR Euro
ENCODING 213
SWIDTH 250 0
DWIDTH 6 0
BBX 2 12 2 0
VVECTOR 3 23
SWIDTH1 0 -1208
DWIDTH1 0 -29
BITMAP 
C0
C0
C0
C0
C0
C0
C0
C0
C0
C0
C0
C0
ENDCHAR
STARTCHAR Iacute
ENCODING 214
SWIDTH 250 0
DWIDTH 6 0
BBX 5 22 1 0
VVECTOR 4 23
SWIDTH1 0 -1208
DWIDTH1 0 -29
BITMAP 
38
70
C0
00
00
60
60
60
60
60
60
60
60
60
60
60
60
60
60
60
60
60
ENDCHAR
STARTCHAR Icircumflex
ENCODING 215
SWIDTH 250 0
DWIDTH 6 0
BBX 6 22 0 0
VVECTOR 3 23
SWIDTH1 0 -1208
DWIDTH1 0 -29
BITMAP 
30
78
CC
00
00
30
30
30
30
30
30
30
30
30
30
30
30
30
30
30
30
30
ENDCHAR
STARTCHAR Idieresis
ENCODING 216
SWIDTH 250 0
DWIDTH 6 0
BBX 6 22 0 0
VVECTOR 3 23
SWIDTH1 0 -1208
DWIDTH1 0 -29
BITMAP 
CC
CC
00
00
00
30
30
30
30
30
30
30
30
30
30
30
30
30
30
30
30
30
ENDCHAR
STARTCHAR SF040000
ENCODING 217
SWIDTH 625 0
DWIDTH 15 0
BBX 8 13 0 10
VVECTOR 1 23
SWIDTH1 0 -1208
DWIDTH1 0 -29
BITMAP 
03
03
03
03
03
03
03
03
03
03
03
FF
FF
ENDCHAR
STARTCHAR SF010000
ENCODING 218
SWIDTH 625 0
DWIDTH 15 0
BBX 9 18 6 -6
VVECTOR 14 23
SWIDTH1 0 -1208
DWIDTH1 0 -29
BITMAP 
FF80
FF80
C000
C000
C000
C000
C000
C000
C000
C000
C000
C000
C000
C000
C000
C000
C000
C000
ENDCHAR
STARTCHAR block
ENCODING 219
SWIDTH 625 0
DWIDTH 15 0
BBX 15 29 0 -6
VVECTOR 8 23
SWIDTH1 0 -1208
DWIDTH1 0 -29
BITMAP 
FFFE
FFFE
FFFE
FFFE
FFFE
FFFE
FFFE
FFFE
FFFE
FFFE
FFFE
FFFE
FFFE
FFFE
FFFE
FFFE
FFFE
FFFE
FFFE
FFFE
FFFE
FFFE
FFFE
FFFE
FFFE
FFFE
FFFE
FFFE
FFFE
ENDCHAR
STARTCHAR dnblock
ENCODING 220
SWIDTH 625 0
DWIDTH 15 0
BBX 15 17 0 -6
VVECTOR 8 23
SWIDTH1 0 -1208
DWIDTH1 0 -29
BITMAP 
FFFE
FFFE
FFFE
FFFE
FFFE
FFFE
FFFE
FFFE
FFFE
FFFE
FFFE
FFFE
FFFE
FFFE
FFFE
FFFE
FFFE
ENDCHAR
STARTCHAR brokenbar
ENCODING 221
SWIDTH 250 0
DWIDTH 6 0
BBX 2 17 2 0
VVECTOR 3 23
SWIDTH1 0 -1208
DWIDTH1 0 -29
BITMAP 
C0
C0
C0
C0
C0
C0
C0
00
00
00
C0
C0
C0
C0
C0
C0
C0
ENDCHAR
STARTCHAR Igrave
ENCODING 222
SWIDTH 250 0
DWIDTH 6 0
BBX 5 22 0 0
VVECTOR 2 23
SWIDTH1 0 -1208
DWIDTH1 0 -29
BITMAP 
E0
70
18
00
00
30
30
30
30
30
30
30
30
30
30
30
30
30
30
30
30
30
ENDCHAR
STARTCHAR upblock
ENCODING 223
SWIDTH 625 0
DWIDTH 15 0
BBX 15 12 0 11
VVECTOR 8 23
SWIDTH1 0 -1208
DWIDTH1 0 -29
BITMAP 
FFFE
FFFE
FFFE
FFFE
FFFE
FFFE
FFFE
FFFE
FFFE
FFFE
FFFE
FFFE
ENDCHAR
STARTCHAR Oacute
ENCODING 224
SWIDTH 792 0
DWIDTH 19 0
BBX 17 22 1 0
VVECTOR 10 23
SWIDTH1 0 -1208
DWIDTH1 0 -29
BITMAP 
007000
00E000
018000
000000
000000
07F000
1FFC00
3C1E00
700700
600300
E00380
C00180
C00180
C00180
C00180
C00180
E00380
600300
700700
3C1E00
1FFC00
07F000
ENDCHAR
STARTCHAR germandbls
ENCODING 225
SWIDTH 625 0
DWIDTH 15 0
BBX 12 17 2 0
VVECTOR 9 23
SWIDTH1 0 -1208
DWIDTH1 0 -29
BITMAP 
1F80
7FE0
6060
C030
C030
C030
C070
CFE0
CFE0
C070
C030
C030
C030
C030
C060
CFE0
CF80
ENDCHAR
STARTCHAR Ocircumflex
ENCODING 226
SWIDTH 792 0
DWIDTH 19 0
BBX 17 22 1 0
VVECTOR 10 23
SWIDTH1 0 -1208
DWIDTH1 0 -29
BITMAP 
01C000
036000
063000
000000
000000
07F000
1FFC00
3C1E00
700700
600300
E00380
C00180
C00180
C00180
C00180
C00180
E00380
600300
700700
3C1E00
1FFC00
07F000
ENDCHAR
STARTCHAR Ograve
ENCODING 227
SWIDTH 792 0
DWIDTH 19 0
BBX 17 22 1 0
VVECTOR 10 23
SWIDTH1 0 -1208
DWIDTH1 0 -29
BITMAP 
038000
01C000
006000
000000
000000
07F000
1FFC00
3C1E00
700700
600300
E00380
C00180
C00180
C00180
C00180
C00180
E00380
600300
700700
3C1E00
1FFC00
07F000
ENDCHAR
STARTCHAR otilde
ENCODING 228
SWIDTH 583 0
DWIDTH 14 0
BBX 12 17 1 0
VVECTOR 7 23
SWIDTH1 0 -1208
DWIDTH1 0 -29
BITMAP 
1C60
3FC0
6380
0000
0000
1F80
7FE0
70E0
E070
C030
C030
C030
C030
E070
70E0
7FE0
1F80
ENDCHAR
STARTCHAR Otilde
ENCODING 229
SWIDTH 792 0
DWIDTH 19 0
BBX 17 22 1 0
VVECTOR 10 23
SWIDTH1 0 -1208
DWIDTH1 0 -29
BITMAP 
038C00
07F800
0C7000
000000
000000
07F000
1FFC00
3C1E00
700700
600300
E00380
C00180
C00180
C00180
C00180
C00180
E00380
600300
700700
3C1E00
1FFC00
07F000
ENDCHAR
STARTCHAR mu
ENCODING 230
SWIDTH 542 0
DWIDTH 13 0
BBX 10 16 2 -4
VVECTOR 8 23
SWIDTH1 0 -1208
DWIDTH1 0 -29
BITMAP 
C180
C180
C180
C180
C180
C180
C180
C180
C180
E380
FFC0
DCC0
C000
C000
C000
C000
ENDCHAR
STARTCHAR thorn
ENCODING 231
SWIDTH 583 0
DWIDTH 14 0
BBX 11 22 2 -5
VVECTOR 8 23
SWIDTH1 0 -1208
DWIDTH1 0 -29
BITMAP 
C000
C000
C000
C000
C000
DF00
FFC0
E1C0
C0E0
C060
C060
C060
C060
C0E0
E1C0
FFC0
DF00
C000
C000
C000
C000
C000
ENDCHAR
STARTCHAR Thorn
ENCODING 232
SWIDTH 667 0
DWIDTH 16 0
BBX 13 17 2 0
VVECTOR 9 23
SWIDTH1 0 -1208
DWIDTH1 0 -29
BITMAP 
C000
C000
C000
FFC0
FFF0
C030
C018
C018
C018
C018
C018
C030
FFF0
FFC0
C000
C000
C000
ENDCHAR
STARTCHAR Uacute
ENCODING 233
SWIDTH 708 0
DWIDTH 17 0
BBX 13 22 2 0
VVECTOR 9 23
SWIDTH1 0 -1208
DWIDTH1 0 -29
BITMAP 
0380
0700
0C00
0000
0000
C018
C018
C018
C018
C018
C018
C018
C018
C018
C018
C018
C018
C018
6030
7070
3FE0
0F80
ENDCHAR
STARTCHAR Ucircumflex
ENCODING 234
SWIDTH 708 0
DWIDTH 17 0
BBX 13 22 2 0
VVECTOR 9 23
SWIDTH1 0 -1208
DWIDTH1 0 -29
BITMAP 
0700
0D80
18C0
0000
0000
C018
C018
C018
C018
C018
C018
C018
C018
C018
C018
C018
C018
C018
6030
7070
3FE0
0F80
ENDCHAR
STARTCHAR Ugrave
ENCODING 235
SWIDTH 708 0
DWIDTH 17 0
BBX 13 22 2 0
VVECTOR 9 23
SWIDTH1 0 -1208
DWIDTH1 0 -29
BITMAP 
0E00
0700
0180
0000
0000
C018
C018
C018
C018
C018
C018
C018
C018
C018
C018
C018
C018
C018
6030
7070
3FE0
0F80
ENDCHAR
STARTCHAR yacute
ENCODING 236
SWIDTH 458 0
DWIDTH 11 0
BBX 11 22 0 -5
VVECTOR 6 23
SWIDTH1 0 -1208
DWIDTH1 0 -29
BITMAP 
0700
0E00
1800
0000
0000
C060
C060
E0E0
60C0
71C0
3180
3180
3B80
1B00
1F00
0E00
0E00
0C00
0C00
1800
F800
F000
ENDCHAR
STARTCHAR Yacute
ENCODING 237
SWIDTH 667 0
DWIDTH 16 0
BBX 16 22 0 0
VVECTOR 8 23
SWIDTH1 0 -1208
DWIDTH1 0 -29
BITMAP 
00E0
01C0
0300
0000
0000
C003
E007
700E
381C
1C38
0E70
07E0
03C0
0180
0180
0180
0180
0180
0180
0180
0180
0180
ENDCHAR
STARTCHAR macron
ENCODING 238
SWIDTH 542 0
DWIDTH 13 0
BBX 13 2 0 18
VVECTOR 7 23
SWIDTH1 0 -1208
DWIDTH1 0 -29
BITMAP 
FFF8
FFF8
ENDCHAR
STARTCHAR acute
ENCODING 239
SWIDTH 333 0
DWIDTH 8 0
BBX 6 4 1 13
VVECTOR 4 23
SWIDTH1 0 -1208
DWIDTH1 0 -29
BITMAP 
1C
38
60
80
ENDCHAR
STARTCHAR uni00AD
ENCODING 240
SWIDTH 333 0
DWIDTH 8 0
BBX 6 2 1 5
VVECTOR 4 23
SWIDTH1 0 -1208
DWIDTH1 0 -29
BITMAP 
FC
FC
ENDCHAR
STARTCHAR plusminus
ENCODING 241
SWIDTH 583 0
DWIDTH 14 0
BBX 12 16 1 0
VVECTOR 7 23
SWIDTH1 0 -1208
DWIDTH1 0 -29
BITMAP 
0600
0600
0600
0600
0600
FFF0
FFF0
0600
0600
0600
0600
0600
0000
0000
FFF0
FFF0
ENDCHAR
STARTCHAR underscoredbl
ENCODING 242
SWIDTH 542 0
DWIDTH 13 0
BBX 13 5 0 -6
VVECTOR 7 23
SWIDTH1 0 -1208
DWIDTH1 0 -29
BITMAP 
FFF8
0000
FFF8
FFF8
FFF8
ENDCHAR
STARTCHAR threequarters
ENCODING 243
SWIDTH 750 0
DWIDTH 18 0
BBX 16 17 1 0
VVECTOR 9 23
SWIDTH1 0 -1208
DWIDTH1 0 -29
BITMAP 
780C
CC0C
0C18
3830
0C30
0C60
CCC0
78C0
0180
0303
0307
060F
0C1B
0C33
183F
3003
3003
ENDCHAR
STARTCHAR paragraph
ENCODING 244
SWIDTH 542 0
DWIDTH 13 0
BBX 12 19 1 -3
VVECTOR 8 23
SWIDTH1 0 -1208
DWIDTH1 0 -29
BITMAP 
1FF0
7FF0
7CC0
FCC0
FCC0
FCC0
7CC0
7CC0
1CC0
0CC0
0CC0
0CC0
0CC0
0CC0
0CC0
0CC0
0CC0
0CC0
0CC0
ENDCHAR
STARTCHAR section
ENCODING 245
SWIDTH 542 0
DWIDTH 13 0
BBX 11 22 1 -4
VVECTOR 7 23
SWIDTH1 0 -1208
DWIDTH1 0 -29
BITMAP 
1F00
3F80
71C0
60C0
70C0
3800
7C00
EE00
C700
C380
E1C0
70E0
3860
1C60
0EE0
07C0
0380
61C0
60C0
71C0
3F80
1F00
ENDCHAR
STARTCHAR divide
ENCODING 246
SWIDTH 583 0
DWIDTH 14 0
BBX 10 12 2 2
VVECTOR 7 23
SWIDTH1 0 -1208
DWIDTH1 0 -29
BITMAP 
0C00
0C00
0C00
0000
0000
FFC0
FFC0
0000
0000
0C00
0C00
0C00
ENDCHAR
STARTCHAR cedilla
ENCODING 247
SWIDTH 333 0
DWIDTH 8 0
BBX 5 5 2 -5
VVECTOR 5 23
SWIDTH1 0 -1208
DWIDTH1 0 -29
BITMAP 
40
70
18
18
F0
ENDCHAR
STARTCHAR degree
ENCODING 248
SWIDTH 333 0
DWIDTH 8 0
BBX 6 6 1 11
VVECTOR 4 23
SWIDTH1 0 -1208
DWIDTH1 0 -29
BITMAP 
30
78
CC
CC
78
30
ENDCHAR
STARTCHAR dieresis
ENCODING 249
SWIDTH 333 0
DWIDTH 8 0
BBX 6 2 1 15
VVECTOR 4 23
SWIDTH1 0 -1208
DWIDTH1 0 -29
BITMAP 
CC
CC
ENDCHAR
STARTCHAR periodcentered
ENCODING 250
SWIDTH 250 0
DWIDTH 6 0
BBX 2 2 2 8
VVECTOR 3 23
SWIDTH1 0 -1208
DWIDTH1 0 -29
BITMAP 
C0
C0
ENDCHAR
STARTCHAR uni00B9
ENCODING 251
SWIDTH 292 0
DWIDTH 7 0
BBX 4 8 1 9
VVECTOR 3 23
SWIDTH1 0 -1208
DWIDTH1 0 -29
BITMAP 
30
F0
30
30
30
30
30
30
ENDCHAR
STARTCHAR uni00B3
ENCODING 252
SWIDTH 292 0
DWIDTH 7 0
BBX 6 8 1 9
VVECTOR 5 23
SWIDTH1 0 -1208
DWIDTH1 0 -29
BITMAP 
78
CC
0C
38
0C
0C
CC
78
ENDCHAR
STARTCHAR uni00B2
ENCODING 253
SWIDTH 292 0
DWIDTH 7 0
BBX 6 8 1 9
VVECTOR 5 23
SWIDTH1 0 -1208
DWIDTH1 0 -29
BITMAP 
78
CC
0C
18
30
60
C0
FC
ENDCHAR
STARTCHAR filledbox
ENCODING 254
SWIDTH 667 0
DWIDTH 16 0
BBX 16 16 0 0
VVECTOR 8 23
SWIDTH1 0 -1208
DWIDTH1 0 -29
BITMAP 
FFFF
FFFF
FFFF
FFFF
FFFF
FFFF
FFFF
FFFF
FFFF
FFFF
FFFF
FFFF
FFFF
FFFF
FFFF
FFFF
ENDCHAR
STARTCHAR uni00A0
ENCODING 255
SWIDTH 250 0
DWIDTH 6 0
BBX 0 0 6 23
VVECTOR 9 23
SWIDTH1 0 -1208
DWIDTH1 0 -29
BITMAP 
ENDCHAR
STARTCHAR peseta
ENCODING 256
SWIDTH 1083 0
DWIDTH 26 0
BBX 23 16 2 0
VVECTOR 14 23
SWIDTH1 0 -1208
DWIDTH1 0 -29
BITMAP 
FC0000
FF0000
C30000
C18000
C18000
C18000
C1B000
C33000
FF7C7C
FC7CFC
C030C0
C030FC
C0307E
C03006
C03CFE
C01CFC
ENDCHAR
STARTCHAR revlogicalnot
ENCODING 257
SWIDTH 583 0
DWIDTH 14 0
BBX 11 7 2 0
VVECTOR 8 23
SWIDTH1 0 -1208
DWIDTH1 0 -29
BITMAP 
FFE0
FFE0
C000
C000
C000
C000
C000
ENDCHAR
STARTCHAR SF190000
ENCODING 258
SWIDTH 625 0
DWIDTH 15 0
BBX 8 29 0 -6
VVECTOR 1 23
SWIDTH1 0 -1208
DWIDTH1 0 -29
BITMAP 
03
03
03
03
03
03
03
03
03
FF
FF
03
03
FF
FF
03
03
03
03
03
03
03
03
03
03
03
03
03
03
ENDCHAR
STARTCHAR SF200000
ENCODING 259
SWIDTH 625 0
DWIDTH 15 0
BBX 10 29 0 -6
VVECTOR 3 23
SWIDTH1 0 -1208
DWIDTH1 0 -29
BITMAP 
0CC0
0CC0
0CC0
0CC0
0CC0
0CC0
0CC0
0CC0
0CC0
0CC0
0CC0
FCC0
FCC0
0CC0
0CC0
0CC0
0CC0
0CC0
0CC0
0CC0
0CC0
0CC0
0CC0
0CC0
0CC0
0CC0
0CC0
0CC0
0CC0
ENDCHAR
STARTCHAR SF210000
ENCODING 260
SWIDTH 625 0
DWIDTH 15 0
BBX 10 18 0 -6
VVECTOR 3 23
SWIDTH1 0 -1208
DWIDTH1 0 -29
BITMAP 
FFC0
FFC0
0CC0
0CC0
0CC0
0CC0
0CC0
0CC0
0CC0
0CC0
0CC0
0CC0
0CC0
0CC0
0CC0
0CC0
0CC0
0CC0
ENDCHAR
STARTCHAR SF220000
ENCODING 261
SWIDTH 625 0
DWIDTH 15 0
BBX 8 20 0 -6
VVECTOR 1 23
SWIDTH1 0 -1208
DWIDTH1 0 -29
BITMAP 
FF
FF
03
03
FF
FF
03
03
03
03
03
03
03
03
03
03
03
03
03
03
ENDCHAR
STARTCHAR SF270000
ENCODING 262
SWIDTH 625 0
DWIDTH 15 0
BBX 10 13 0 10
VVECTOR 3 23
SWIDTH1 0 -1208
DWIDTH1 0 -29
BITMAP 
0CC0
0CC0
0CC0
0CC0
0CC0
0CC0
0CC0
0CC0
0CC0
0CC0
0CC0
FFC0
FFC0
ENDCHAR
STARTCHAR SF280000
ENCODING 263
SWIDTH 625 0
DWIDTH 15 0
BBX 8 15 0 8
VVECTOR 1 23
SWIDTH1 0 -1208
DWIDTH1 0 -29
BITMAP 
03
03
03
03
03
03
03
03
03
FF
FF
03
03
FF
FF
ENDCHAR
STARTCHAR SF360000
ENCODING 264
SWIDTH 625 0
DWIDTH 15 0
BBX 9 29 6 -6
VVECTOR 14 23
SWIDTH1 0 -1208
DWIDTH1 0 -29
BITMAP 
C000
C000
C000
C000
C000
C000
C000
C000
C000
FF80
FF80
C000
C000
FF80
FF80
C000
C000
C000
C000
C000
C000
C000
C000
C000
C000
C000
C000
C000
C000
ENDCHAR
STARTCHAR SF370000
ENCODING 265
SWIDTH 625 0
DWIDTH 15 0
BBX 11 29 4 -6
VVECTOR 12 23
SWIDTH1 0 -1208
DWIDTH1 0 -29
BITMAP 
CC00
CC00
CC00
CC00
CC00
CC00
CC00
CC00
CC00
CC00
CC00
CFE0
CFE0
CC00
CC00
CC00
CC00
CC00
CC00
CC00
CC00
CC00
CC00
CC00
CC00
CC00
CC00
CC00
CC00
ENDCHAR
STARTCHAR SF450000
ENCODING 266
SWIDTH 625 0
DWIDTH 15 0
BBX 15 15 0 8
VVECTOR 8 23
SWIDTH1 0 -1208
DWIDTH1 0 -29
BITMAP 
0300
0300
0300
0300
0300
0300
0300
0300
0300
FFFE
FFFE
0000
0000
FFFE
FFFE
ENDCHAR
STARTCHAR SF460000
ENCODING 267
SWIDTH 625 0
DWIDTH 15 0
BBX 15 13 0 10
VVECTOR 8 23
SWIDTH1 0 -1208
DWIDTH1 0 -29
BITMAP 
0CC0
0CC0
0CC0
0CC0
0CC0
0CC0
0CC0
0CC0
0CC0
0CC0
0CC0
FFFE
FFFE
ENDCHAR
STARTCHAR SF470000
ENCODING 268
SWIDTH 625 0
DWIDTH 15 0
BBX 15 20 0 -6
VVECTOR 8 23
SWIDTH1 0 -1208
DWIDTH1 0 -29
BITMAP 
FFFE
FFFE
0000
0000
FFFE
FFFE
0300
0300
0300
0300
0300
0300
0300
0300
0300
0300
0300
0300
0300
0300
ENDCHAR
STARTCHAR SF480000
ENCODING 269
SWIDTH 625 0
DWIDTH 15 0
BBX 15 18 0 -6
VVECTOR 8 23
SWIDTH1 0 -1208
DWIDTH1 0 -29
BITMAP 
FFFE
FFFE
0CC0
0CC0
0CC0
0CC0
0CC0
0CC0
0CC0
0CC0
0CC0
0CC0
0CC0
0CC0
0CC0
0CC0
0CC0
0CC0
ENDCHAR
STARTCHAR SF490000
ENCODING 270
SWIDTH 625 0
DWIDTH 15 0
BBX 11 13 4 10
VVECTOR 12 23
SWIDTH1 0 -1208
DWIDTH1 0 -29
BITMAP 
CC00
CC00
CC00
CC00
CC00
CC00
CC00
CC00
CC00
CC00
CC00
FFE0
FFE0
ENDCHAR
STARTCHAR SF500000
ENCODING 271
SWIDTH 625 0
DWIDTH 15 0
BBX 9 15 6 8
VVECTOR 14 23
SWIDTH1 0 -1208
DWIDTH1 0 -29
BITMAP 
C000
C000
C000
C000
C000
C000
C000
C000
C000
FF80
FF80
C000
C000
FF80
FF80
ENDCHAR
STARTCHAR SF510000
ENCODING 272
SWIDTH 625 0
DWIDTH 15 0
BBX 9 20 6 -6
VVECTOR 14 23
SWIDTH1 0 -1208
DWIDTH1 0 -29
BITMAP 
FF80
FF80
C000
C000
FF80
FF80
C000
C000
C000
C000
C000
C000
C000
C000
C000
C000
C000
C000
C000
C000
ENDCHAR
STARTCHAR SF520000
ENCODING 273
SWIDTH 625 0
DWIDTH 15 0
BBX 11 18 4 -6
VVECTOR 12 23
SWIDTH1 0 -1208
DWIDTH1 0 -29
BITMAP 
FFE0
FFE0
CC00
CC00
CC00
CC00
CC00
CC00
CC00
CC00
CC00
CC00
CC00
CC00
CC00
CC00
CC00
CC00
ENDCHAR
STARTCHAR SF530000
ENCODING 274
SWIDTH 625 0
DWIDTH 15 0
BBX 15 29 0 -6
VVECTOR 8 23
SWIDTH1 0 -1208
DWIDTH1 0 -29
BITMAP 
0CC0
0CC0
0CC0
0CC0
0CC0
0CC0
0CC0
0CC0
0CC0
0CC0
0CC0
FFFE
FFFE
0CC0
0CC0
0CC0
0CC0
0CC0
0CC0
0CC0
0CC0
0CC0
0CC0
0CC0
0CC0
0CC0
0CC0
0CC0
0CC0
ENDCHAR
STARTCHAR SF540000
ENCODING 275
SWIDTH 625 0
DWIDTH 15 0
BBX 15 29 0 -6
VVECTOR 8 23
SWIDTH1 0 -1208
DWIDTH1 0 -29
BITMAP 
0300
0300
0300
0300
0300
0300
0300
0300
0300
FFFE
FFFE
0300
0300
FFFE
FFFE
0300
0300
0300
0300
0300
0300
0300
0300
0300
0300
0300
0300
0300
0300
ENDCHAR
STARTCHAR lfblock
ENCODING 276
SWIDTH 625 0
DWIDTH 15 0
BBX 8 29 0 -6
VVECTOR 1 23
SWIDTH1 0 -1208
DWIDTH1 0 -29
BITMAP 
FF
FF
FF
FF
FF
FF
FF
FF
FF
FF
FF
FF
FF
FF
FF
FF
FF
FF
FF
FF
FF
FF
FF
FF
FF
FF
FF
FF
FF
ENDCHAR
STARTCHAR rtblock
ENCODING 277
SWIDTH 625 0
DWIDTH 15 0
BBX 8 29 7 -6
VVECTOR 15 23
SWIDTH1 0 -1208
DWIDTH1 0 -29
BITMAP 
FF
FF
FF
FF
FF
FF
FF
FF
FF
FF
FF
FF
FF
FF
FF
FF
FF
FF
FF
FF
FF
FF
FF
FF
FF
FF
FF
FF
FF
ENDCHAR
STARTCHAR alpha
ENCODING 278
SWIDTH 667 0
DWIDTH 16 0
BBX 14 12 1 0
VVECTOR 8 23
SWIDTH1 0 -1208
DWIDTH1 0 -29
BITMAP 
1F0C
7FCC
61D8
E078
C070
C030
C070
C070
E0D8
63D8
7F8C
1E0C
ENDCHAR
STARTCHAR Gamma
ENCODING 279
SWIDTH 542 0
DWIDTH 13 0
BBX 10 16 2 0
VVECTOR 8 23
SWIDTH1 0 -1208
DWIDTH1 0 -29
BITMAP 
FFC0
FFC0
C000
C000
C000
C000
C000
C000
C000
C000
C000
C000
C000
C000
C000
C000
ENDCHAR
STARTCHAR pi
ENCODING 280
SWIDTH 583 0
DWIDTH 14 0
BBX 12 12 1 0
VVECTOR 7 23
SWIDTH1 0 -1208
DWIDTH1 0 -29
BITMAP 
FFF0
FFF0
30C0
30C0
30C0
30C0
30C0
30C0
30C0
30C0
30C0
30C0
ENDCHAR
STARTCHAR Sigma
ENCODING 281
SWIDTH 583 0
DWIDTH 14 0
BBX 12 16 1 0
VVECTOR 7 23
SWIDTH1 0 -1208
DWIDTH1 0 -29
BITMAP 
FFF0
FFF0
7000
3800
1C00
0E00
0700
0380
0380
0700
0E00
1C00
3800
7000
FFF0
FFF0
ENDCHAR
STARTCHAR sigma
ENCODING 282
SWIDTH 542 0
DWIDTH 13 0
BBX 12 12 1 0
VVECTOR 8 23
SWIDTH1 0 -1208
DWIDTH1 0 -29
BITMAP 
1FF0
7FF0
6180
E0C0
C060
C060
C060
C060
E0E0
60C0
7FC0
1F00
ENDCHAR
STARTCHAR tau
ENCODING 283
SWIDTH 417 0
DWIDTH 10 0
BBX 8 12 1 0
VVECTOR 5 23
SWIDTH1 0 -1208
DWIDTH1 0 -29
BITMAP 
FF
FF
18
18
18
18
18
18
18
18
18
18
ENDCHAR
STARTCHAR Phi
ENCODING 284
SWIDTH 750 0
DWIDTH 18 0
BBX 16 16 1 0
VVECTOR 9 23
SWIDTH1 0 -1208
DWIDTH1 0 -29
BITMAP 
0180
0180
0FF0
3FFC
718E
6186
C183
C183
C183
C183
6186
718E
3FFC
0FF0
0180
0180
ENDCHAR
STARTCHAR Theta
ENCODING 285
SWIDTH 792 0
DWIDTH 19 0
BBX 15 16 2 0
VVECTOR 10 23
SWIDTH1 0 -1208
DWIDTH1 0 -29
BITMAP 
07C0
1FF0
3838
701C
600C
C006
C006
CFE6
CFE6
C006
C006
600C
701C
3838
1FF0
07C0
ENDCHAR
STARTCHAR uni03A9
ENCODING 286
SWIDTH 833 0
DWIDTH 20 0
BBX 16 16 2 0
VVECTOR 10 23
SWIDTH1 0 -1208
DWIDTH1 0 -29
BITMAP 
07E0
1FF8
381C
700E
6006
C003
C003
C003
C003
6006
700E
381C
0E70
0660
FE7F
FE7F
ENDCHAR
STARTCHAR delta
ENCODING 287
SWIDTH 542 0
DWIDTH 13 0
BBX 11 16 1 0
VVECTOR 7 23
SWIDTH1 0 -1208
DWIDTH1 0 -29
BITMAP 
7FC0
7FC0
3800
0E00
1F00
7FC0
60C0
E0E0
C060
C060
C060
C060
E0E0
60C0
7FC0
1F00
ENDCHAR
STARTCHAR infinity
ENCODING 288
SWIDTH 792 0
DWIDTH 19 0
BBX 17 8 1 4
VVECTOR 10 23
SWIDTH1 0 -1208
DWIDTH1 0 -29
BITMAP 
3E3E00
7F7F00
E3E380
C1C180
C1C180
E3E380
7F7F00
3E3E00
ENDCHAR
STARTCHAR phi1
ENCODING 289
SWIDTH 583 0
DWIDTH 14 0
BBX 12 20 1 -4
VVECTOR 7 23
SWIDTH1 0 -1208
DWIDTH1 0 -29
BITMAP 
0600
0600
0600
0600
1F80
7FE0
6660
E670
C630
C630
C630
C630
E670
6660
7FE0
1F80
0600
0600
0600
0600
ENDCHAR
STARTCHAR epsilon
ENCODING 290
SWIDTH 500 0
DWIDTH 12 0
BBX 10 12 1 0
VVECTOR 6 23
SWIDTH1 0 -1208
DWIDTH1 0 -29
BITMAP 
1F00
7FC0
E0C0
C0C0
C000
7E00
7E00
C000
C0C0
E0C0
7FC0
1F00
ENDCHAR
STARTCHAR intersection
ENCODING 291
SWIDTH 625 0
DWIDTH 15 0
BBX 13 15 1 0
VVECTOR 8 23
SWIDTH1 0 -1208
DWIDTH1 0 -29
BITMAP 
1FC0
7FF0
6030
C018
C018
C018
C018
C018
C018
C018
C018
C018
C018
C018
C018
ENDCHAR
STARTCHAR equivalence
ENCODING 292
SWIDTH 583 0
DWIDTH 14 0
BBX 10 10 2 3
VVECTOR 7 23
SWIDTH1 0 -1208
DWIDTH1 0 -29
BITMAP 
FFC0
FFC0
0000
0000
FFC0
FFC0
0000
0000
FFC0
FFC0
ENDCHAR
STARTCHAR greaterequal
ENCODING 293
SWIDTH 583 0
DWIDTH 14 0
BBX 11 14 2 0
VVECTOR 8 23
SWIDTH1 0 -1208
DWIDTH1 0 -29
BITMAP 
C000
F000
3C00
0F00
03C0
00E0
03C0
0F00
3C00
F000
C000
0000
FFE0
FFE0
ENDCHAR
STARTCHAR lessequal
ENCODING 294
SWIDTH 583 0
DWIDTH 14 0
BBX 11 14 1 0
VVECTOR 6 23
SWIDTH1 0 -1208
DWIDTH1 0 -29
BITMAP 
0060
01E0
0780
1E00
7800
E000
7800
1E00
0780
01E0
0060
0000
FFE0
FFE0
ENDCHAR
STARTCHAR integraltp
ENCODING 295
SWIDTH 750 0
DWIDTH 18 0
BBX 7 24 8 -4
VVECTOR 14 23
SWIDTH1 0 -1208
DWIDTH1 0 -29
BITMAP 
3C
7E
CE
C4
C0
C0
C0
C0
C0
C0
C0
C0
C0
C0
C0
C0
C0
C0
C0
C0
C0
C0
C0
C0
ENDCHAR
STARTCHAR integralbt
ENCODING 296
SWIDTH 750 0
DWIDTH 18 0
BBX 7 24 3 -4
VVECTOR 4 23
SWIDTH1 0 -1208
DWIDTH1 0 -29
BITMAP 
06
06
06
06
06
06
06
06
06
06
06
06
06
06
06
06
06
06
06
06
46
E6
FC
78
ENDCHAR
STARTCHAR approxequal
ENCODING 297
SWIDTH 583 0
DWIDTH 14 0
BBX 10 7 2 4
VVECTOR 7 23
SWIDTH1 0 -1208
DWIDTH1 0 -29
BITMAP 
38C0
FFC0
C700
0000
38C0
FFC0
C700
ENDCHAR
STARTCHAR uni2219
ENCODING 298
SWIDTH 583 0
DWIDTH 14 0
BBX 4 4 5 6
VVECTOR 7 23
SWIDTH1 0 -1208
DWIDTH1 0 -29
BITMAP 
F0
F0
F0
F0
ENDCHAR
STARTCHAR radical
ENCODING 299
SWIDTH 667 0
DWIDTH 16 0
BBX 16 18 0 0
VVECTOR 8 23
SWIDTH1 0 -1208
DWIDTH1 0 -29
BITMAP 
003F
003F
0070
0060
0060
00E0
00C0
00C0
01C0
0180
F180
FB80
1B00
1F00
0F00
0E00
0600
0600
ENDCHAR
STARTCHAR uni207F
ENCODING 300
SWIDTH 375 0
DWIDTH 9 0
BBX 7 8 1 8
VVECTOR 5 23
SWIDTH1 0 -1208
DWIDTH1 0 -29
BITMAP 
DC
FE
E6
C6
C6
C6
C6
C6
ENDCHAR
STARTCHAR uni02C9
ENCODING 301
SWIDTH 333 0
DWIDTH 8 0
BBX 8 2 0 18
VVECTOR 4 23
SWIDTH1 0 -1208
DWIDTH1 0 -29
BITMAP 
FF
FF
ENDCHAR
STARTCHAR breve
ENCODING 302
SWIDTH 333 0
DWIDTH 8 0
BBX 8 4 0 16
VVECTOR 4 23
SWIDTH1 0 -1208
DWIDTH1 0 -29
BITMAP 
81
E7
7E
18
ENDCHAR
STARTCHAR dotaccent
ENCODING 303
SWIDTH 333 0
DWIDTH 8 0
BBX 3 3 2 17
VVECTOR 3 23
SWIDTH1 0 -1208
DWIDTH1 0 -29
BITMAP 
E0
E0
E0
ENDCHAR
STARTCHAR ring
ENCODING 304
SWIDTH 333 0
DWIDTH 8 0
BBX 6 6 1 14
VVECTOR 4 23
SWIDTH1 0 -1208
DWIDTH1 0 -29
BITMAP 
78
FC
CC
CC
FC
78
ENDCHAR
STARTCHAR hungarumlaut
ENCODING 305
SWIDTH 417 0
DWIDTH 10 0
BBX 10 3 0 17
VVECTOR 5 23
SWIDTH1 0 -1208
DWIDTH1 0 -29
BITMAP 
39C0
7380
C600
ENDCHAR
STARTCHAR ogonek
ENCODING 306
SWIDTH 333 0
DWIDTH 8 0
BBX 6 4 1 -4
VVECTOR 4 23
SWIDTH1 0 -1208
DWIDTH1 0 -29
BITMAP 
C0
C0
EC
78
ENDCHAR
STARTCHAR caron
ENCODING 307
SWIDTH 333 0
DWIDTH 8 0
BBX 8 3 0 17
VVECTOR 4 23
SWIDTH1 0 -1208
DWIDTH1 0 -29
BITMAP 
C3
7E
3C
ENDCHAR
STARTCHAR quoteleft
ENCODING 308
SWIDTH 208 0
DWIDTH 5 0
BBX 3 6 1 14
VVECTOR 3 23
SWIDTH1 0 -1208
DWIDTH1 0 -29
BITMAP 
60
E0
80
E0
E0
E0
ENDCHAR
STARTCHAR quoteright
ENCODING 309
SWIDTH 208 0
DWIDTH 5 0
BBX 3 6 1 14
VVECTOR 3 23
SWIDTH1 0 -1208
DWIDTH1 0 -29
BITMAP 
E0
E0
E0
20
E0
C0
ENDCHAR
STARTCHAR quotedblleft
ENCODING 310
SWIDTH 333 0
DWIDTH 8 0
BBX 7 6 1 14
VVECTOR 5 23
SWIDTH1 0 -1208
DWIDTH1 0 -29
BITMAP 
66
EE
88
EE
EE
EE
ENDCHAR
STARTCHAR quotedblright
ENCODING 311
SWIDTH 333 0
DWIDTH 8 0
BBX 7 6 1 14
VVECTOR 5 23
SWIDTH1 0 -1208
DWIDTH1 0 -29
BITMAP 
EE
EE
EE
22
EE
CC
ENDCHAR
STARTCHAR endash
ENCODING 312
SWIDTH 542 0
DWIDTH 13 0
BBX 10 2 2 6
VVECTOR 8 23
SWIDTH1 0 -1208
DWIDTH1 0 -29
BITMAP 
FFC0
FFC0
ENDCHAR
STARTCHAR emdash
ENCODING 313
SWIDTH 1000 0
DWIDTH 24 0
BBX 16 2 2 6
VVECTOR 8 23
SWIDTH1 0 -1208
DWIDTH1 0 -29
BITMAP 
FFFF
FFFF
ENDCHAR
STARTCHAR uniFFE5
ENCODING 314
SWIDTH 458 0
DWIDTH 11 0
BBX 11 4 0 16
VVECTOR 6 23
SWIDTH1 0 -1208
DWIDTH1 0 -29
BITMAP 
1F00
3F80
71C0
C060
ENDCHAR
STARTCHAR dotlessi
ENCODING 315
SWIDTH 583 0
DWIDTH 14 0
BBX 10 3 2 17
VVECTOR 7 23
SWIDTH1 0 -1208
DWIDTH1 0 -29
BITMAP 
78C0
FFC0
C780
ENDCHAR
STARTCHAR quotesinglbase
ENCODING 316
SWIDTH 208 0
DWIDTH 5 0
BBX 3 6 1 -3
VVECTOR 3 23
SWIDTH1 0 -1208
DWIDTH1 0 -29
BITMAP 
E0
E0
E0
20
E0
C0
ENDCHAR
STARTCHAR quotedblbase
ENCODING 317
SWIDTH 333 0
DWIDTH 8 0
BBX 7 6 0 -3
VVECTOR 3 23
SWIDTH1 0 -1208
DWIDTH1 0 -29
BITMAP 
EE
EE
EE
22
EE
CC
ENDCHAR
STARTCHAR ellipsis
ENCODING 318
SWIDTH 1000 0
DWIDTH 24 0
BBX 18 2 3 0
VVECTOR 12 23
SWIDTH1 0 -1208
DWIDTH1 0 -29
BITMAP 
C0C0C0
C0C0C0
ENDCHAR
STARTCHAR dagger
ENCODING 319
SWIDTH 542 0
DWIDTH 13 0
BBX 12 23 1 0
VVECTOR 8 23
SWIDTH1 0 -1208
DWIDTH1 0 -29
BITMAP 
0600
0600
0600
0600
0600
0600
FFF0
FFF0
0600
0600
0600
0600
0600
0600
0600
0600
0600
0600
0600
0600
0600
0600
0600
ENDCHAR
STARTCHAR daggerdbl
ENCODING 320
SWIDTH 542 0
DWIDTH 13 0
BBX 12 23 1 0
VVECTOR 8 23
SWIDTH1 0 -1208
DWIDTH1 0 -29
BITMAP 
0600
0600
0600
0600
0600
0600
FFF0
FFF0
0600
0600
0600
0600
0600
0600
FFF0
FFF0
0600
0600
0600
0600
0600
0600
0600
ENDCHAR
STARTCHAR circumflex
ENCODING 321
SWIDTH 333 0
DWIDTH 8 0
BBX 8 4 0 14
VVECTOR 4 23
SWIDTH1 0 -1208
DWIDTH1 0 -29
BITMAP 
18
3C
66
C3
ENDCHAR
STARTCHAR perthousand
ENCODING 322
SWIDTH 1000 0
DWIDTH 24 0
BBX 24 17 0 0
VVECTOR 12 23
SWIDTH1 0 -1208
DWIDTH1 0 -29
BITMAP 
3C0600
7E0600
E70C00
C31800
C31800
E73000
7E6000
3C6000
00C000
018F3C
019FFE
0339E7
0630C3
0630C3
0C39E7
181FFE
180F3C
ENDCHAR
STARTCHAR Scaron
ENCODING 323
SWIDTH 667 0
DWIDTH 16 0
BBX 14 22 1 0
VVECTOR 8 23
SWIDTH1 0 -1208
DWIDTH1 0 -29
BITMAP 
1860
0CC0
0780
0000
0000
0FC0
3FF0
3038
6018
6000
6000
3000
3FE0
0FF8
0018
000C
000C
C00C
E00C
7818
3FF8
0FE0
ENDCHAR
STARTCHAR guilsinglleft
ENCODING 324
SWIDTH 333 0
DWIDTH 8 0
BBX 4 8 2 2
VVECTOR 4 23
SWIDTH1 0 -1208
DWIDTH1 0 -29
BITMAP 
10
30
60
C0
C0
60
30
10
ENDCHAR
STARTCHAR OE
ENCODING 325
SWIDTH 1000 0
DWIDTH 24 0
BBX 24 17 0 0
VVECTOR 12 23
SWIDTH1 0 -1208
DWIDTH1 0 -29
BITMAP 
07E7FF
1FFFFF
381E00
700E00
600600
E00600
C00600
C007FE
C007FE
C00600
C00600
E00600
600600
700E00
381E00
1FFFFF
07E7FF
ENDCHAR
STARTCHAR tilde
ENCODING 326
SWIDTH 333 0
DWIDTH 8 0
BBX 8 3 0 15
VVECTOR 4 23
SWIDTH1 0 -1208
DWIDTH1 0 -29
BITMAP 
33
7E
CC
ENDCHAR
STARTCHAR trademark
ENCODING 327
SWIDTH 1000 0
DWIDTH 24 0
BBX 22 10 1 7
VVECTOR 12 23
SWIDTH1 0 -1208
DWIDTH1 0 -29
BITMAP 
FF783C
FF783C
18682C
186C6C
186C6C
1866CC
1866CC
18638C
18638C
18610C
ENDCHAR
STARTCHAR scaron
ENCODING 328
SWIDTH 500 0
DWIDTH 12 0
BBX 10 17 1 0
VVECTOR 6 23
SWIDTH1 0 -1208
DWIDTH1 0 -29
BITMAP 
6300
3600
1C00
0000
0000
3E00
7F80
E180
C000
F000
7F00
1F80
03C0
00C0
C1C0
FF80
3F00
ENDCHAR
STARTCHAR guilsinglright
ENCODING 329
SWIDTH 333 0
DWIDTH 8 0
BBX 4 8 2 2
VVECTOR 4 23
SWIDTH1 0 -1208
DWIDTH1 0 -29
BITMAP 
80
C0
60
30
30
60
C0
80
ENDCHAR
STARTCHAR oe
ENCODING 330
SWIDTH 917 0
DWIDTH 22 0
BBX 21 12 0 0
VVECTOR 10 23
SWIDTH1 0 -1208
DWIDTH1 0 -29
BITMAP 
1F0780
7FDFE0
71F870
E0F030
C06018
C07FF8
C07FF8
C06000
E0F000
71F838
7FDFF0
1F07C0
ENDCHAR
ENDFONT
